<svg width="82" height="40" viewBox="0 0 82 40" fill="none" xmlns="http://www.w3.org/2000/svg">
<path d="M10.0853 24.5176C12.3088 24.5176 14.2059 23.7324 15.7765 22.1618C17.3471 20.5912 18.1324 18.6941 18.1324 16.4706C18.1324 14.2471 17.3471 12.35 15.7765 10.7794C14.2059 9.20881 12.3088 8.42352 10.0853 8.42352C7.86177 8.42352 5.96471 9.20881 4.39412 10.7794C2.82353 12.35 2.03824 14.2471 2.03824 16.4706C2.03824 18.6941 2.82353 20.5912 4.39412 22.1618C5.96471 23.7324 7.86177 24.5176 10.0853 24.5176ZM18.1985 22.5985C18.1809 22.625 17.8544 22.9603 17.2191 23.6044C15.2427 25.5721 12.8647 26.5559 10.0853 26.5559C7.30589 26.5559 4.92794 25.5721 2.95147 23.6044C0.983824 21.6279 0 19.25 0 16.4706C0 13.6912 0.983824 11.3132 2.95147 9.33676C4.92794 7.36911 7.30589 6.38528 10.0853 6.38528C12.8647 6.38528 15.2427 7.36911 17.2191 9.33676C19.1868 11.3132 20.1706 13.6912 20.1706 16.4706V26.3044H18.1985V22.5985ZM36.4421 22.1485C37.8362 20.8426 38.5333 18.9676 38.5333 16.5235C38.5333 14.0706 37.8362 12.1912 36.4421 10.8853C35.4097 9.92352 34.0377 9.29264 32.3259 8.99264C31.4259 8.82499 30.6494 8.76764 29.9965 8.82058H29.9568H24.3715V24.2265H29.9833C32.8068 24.2265 34.9597 23.5338 36.4421 22.1485ZM37.8583 9.36323C39.7024 11.075 40.6244 13.4618 40.6244 16.5235C40.6244 19.5853 39.7024 21.9721 37.8583 23.6838C36.5612 24.8926 34.8935 25.6956 32.8553 26.0926C31.7877 26.2956 30.8038 26.3706 29.9038 26.3176H23.7097H22.32L22.3332 6.71617H25.1656L29.9171 6.7294C31.17 6.7294 32.198 6.8044 33.0009 6.9544C34.9421 7.34264 36.5612 8.14558 37.8583 9.36323ZM52.8724 24.5176C55.0959 24.5176 56.993 23.7324 58.5636 22.1618C60.1342 20.5912 60.9194 18.6941 60.9194 16.4706C60.9194 14.2471 60.1342 12.35 58.5636 10.7794C56.993 9.20881 55.0959 8.42352 52.8724 8.42352C50.6489 8.42352 48.7518 9.20881 47.1812 10.7794C45.6106 12.35 44.8253 14.2471 44.8253 16.4706C44.8253 18.6941 45.6106 20.5912 47.1812 22.1618C48.7518 23.7324 50.6489 24.5176 52.8724 24.5176ZM52.8724 6.38528C55.6518 6.38528 58.0297 7.36911 60.0062 9.33676C61.9739 11.3132 62.9577 13.6912 62.9577 16.4706C62.9577 19.25 61.9739 21.6279 60.0062 23.6044C58.0297 25.5721 55.6518 26.5559 52.8724 26.5559C50.093 26.5559 47.715 25.5721 45.7386 23.6044C43.7709 21.6279 42.7871 19.25 42.7871 16.4706C42.7871 13.6912 43.7709 11.3132 45.7386 9.33676C47.715 7.36911 50.093 6.38528 52.8724 6.38528ZM74.835 12.9765C76.2027 13.4882 77.3056 14.3441 78.1439 15.5441C79.0086 16.7529 79.4409 18.0985 79.4409 19.5809C79.4409 21.5397 78.7395 23.2029 77.3365 24.5706C75.9336 25.9559 74.2439 26.6485 72.2674 26.6485C70.3086 26.6485 68.6365 25.9691 67.2512 24.6103C65.8571 23.2603 65.1424 21.5088 65.1071 19.3559H67.1321C67.1674 20.9353 67.6836 22.2059 68.6806 23.1676C69.6777 24.1382 70.8733 24.6235 72.2674 24.6235C73.688 24.6235 74.9012 24.125 75.9071 23.1279C76.9042 22.1485 77.4027 20.9662 77.4027 19.5809C77.4027 18.1779 76.9042 16.9868 75.9071 16.0073C74.9012 15.0103 73.688 14.5118 72.2674 14.5118C71.2527 14.5118 70.3615 14.1853 69.5939 13.5323C69.488 13.4353 69.4174 13.3691 69.3821 13.3338C68.5703 12.5309 68.1644 11.5691 68.1644 10.4485C68.1644 9.31911 68.5703 8.35293 69.3821 7.54999C70.1762 6.75587 71.138 6.35881 72.2674 6.35881C74.3586 6.36764 75.8542 7.6294 76.7542 10.1441L74.2924 10.1309C74.2395 9.76911 74.0542 9.3897 73.7365 8.99264C73.3306 8.58675 72.8409 8.38381 72.2674 8.38381C71.7027 8.38381 71.2174 8.58675 70.8115 8.99264C70.4056 9.3897 70.2027 9.87499 70.2027 10.4485C70.2027 11.0044 70.4056 11.4809 70.8115 11.8779C71.2174 12.2838 71.7027 12.4868 72.2674 12.4868C73.1497 12.4868 74.0056 12.65 74.835 12.9765Z" fill="white"/>
<path d="M6.3473 34.7311C6.3473 35.1979 6.27953 35.6271 6.144 36.0186C6.00847 36.4027 5.81271 36.7339 5.55671 37.0125C5.30071 37.2836 4.992 37.4944 4.63059 37.645C4.27671 37.7956 3.87765 37.8709 3.43341 37.8709C2.99671 37.8709 2.59765 37.7956 2.23624 37.645C1.88235 37.4944 1.57741 37.2836 1.32141 37.0125C1.06541 36.7339 0.865883 36.4027 0.722824 36.0186C0.579765 35.6271 0.508236 35.1979 0.508236 34.7311C0.508236 34.2643 0.579765 33.8389 0.722824 33.4549C0.873412 33.0709 1.07671 32.7434 1.33271 32.4723C1.59624 32.2012 1.90494 31.9904 2.25882 31.8398C2.62024 31.6892 3.01177 31.6139 3.43341 31.6139C3.86259 31.6139 4.25412 31.6892 4.608 31.8398C4.96942 31.9904 5.27812 32.2012 5.53412 32.4723C5.79012 32.7434 5.98965 33.0709 6.13271 33.4549C6.27577 33.8389 6.3473 34.2643 6.3473 34.7311ZM4.63059 34.7311C4.63059 34.2116 4.52518 33.805 4.31436 33.5114C4.11106 33.2102 3.81741 33.0596 3.43341 33.0596C3.04941 33.0596 2.752 33.2102 2.54118 33.5114C2.33035 33.805 2.22494 34.2116 2.22494 34.7311C2.22494 35.2506 2.33035 35.6648 2.54118 35.9735C2.752 36.2746 3.04941 36.4252 3.43341 36.4252C3.81741 36.4252 4.11106 36.2746 4.31436 35.9735C4.52518 35.6648 4.63059 35.2506 4.63059 34.7311ZM9.3563 36.5043C9.66501 36.5043 9.88336 36.4742 10.0114 36.4139C10.1394 36.3537 10.2034 36.237 10.2034 36.0638C10.2034 35.9283 10.1205 35.8116 9.95489 35.7137C9.78924 35.6083 9.53701 35.4916 9.19818 35.3636C8.93465 35.2657 8.69371 35.1641 8.47536 35.0586C8.26453 34.9532 8.08383 34.829 7.93324 34.6859C7.78265 34.5354 7.66595 34.3584 7.58312 34.1551C7.5003 33.9518 7.45889 33.7071 7.45889 33.421C7.45889 32.8638 7.66595 32.4234 8.08006 32.0996C8.49418 31.7758 9.06265 31.6139 9.78548 31.6139C10.1469 31.6139 10.4932 31.6478 10.8245 31.7156C11.1558 31.7758 11.4194 31.8436 11.6151 31.9189L11.3215 33.229C11.1257 33.1612 10.9111 33.101 10.6777 33.0483C10.4518 32.9956 10.1958 32.9692 9.90971 32.9692C9.38265 32.9692 9.11912 33.1161 9.11912 33.4097C9.11912 33.4775 9.13042 33.5377 9.15301 33.5904C9.17559 33.6431 9.22077 33.6958 9.28853 33.7485C9.3563 33.7937 9.44665 33.8464 9.55959 33.9066C9.68006 33.9594 9.83065 34.0196 10.0114 34.0874C10.3803 34.2229 10.6852 34.3584 10.9262 34.4939C11.1671 34.6219 11.3554 34.765 11.4909 34.9231C11.6339 35.0737 11.7318 35.2431 11.7845 35.4314C11.8448 35.6196 11.8749 35.8379 11.8749 36.0864C11.8749 36.6737 11.6528 37.1179 11.2085 37.4191C10.7718 37.7203 10.1507 37.8709 9.34501 37.8709C8.81795 37.8709 8.37748 37.8257 8.02359 37.7354C7.67724 37.645 7.4363 37.5697 7.30077 37.5095L7.58312 36.1429C7.86924 36.2558 8.16289 36.3462 8.46406 36.4139C8.76524 36.4742 9.06265 36.5043 9.3563 36.5043ZM18.6892 34.7311C18.6892 35.1979 18.6215 35.6271 18.4859 36.0186C18.3504 36.4027 18.1546 36.7339 17.8986 37.0125C17.6426 37.2836 17.3339 37.4944 16.9725 37.645C16.6186 37.7956 16.2196 37.8709 15.7753 37.8709C15.3386 37.8709 14.9396 37.7956 14.5782 37.645C14.2243 37.4944 13.9193 37.2836 13.6633 37.0125C13.4073 36.7339 13.2078 36.4027 13.0647 36.0186C12.9217 35.6271 12.8502 35.1979 12.8502 34.7311C12.8502 34.2643 12.9217 33.8389 13.0647 33.4549C13.2153 33.0709 13.4186 32.7434 13.6746 32.4723C13.9382 32.2012 14.2469 31.9904 14.6007 31.8398C14.9622 31.6892 15.3537 31.6139 15.7753 31.6139C16.2045 31.6139 16.596 31.6892 16.9499 31.8398C17.3113 31.9904 17.62 32.2012 17.876 32.4723C18.132 32.7434 18.3316 33.0709 18.4746 33.4549C18.6177 33.8389 18.6892 34.2643 18.6892 34.7311ZM16.9725 34.7311C16.9725 34.2116 16.8671 33.805 16.6563 33.5114C16.453 33.2102 16.1593 33.0596 15.7753 33.0596C15.3913 33.0596 15.0939 33.2102 14.8831 33.5114C14.6723 33.805 14.5669 34.2116 14.5669 34.7311C14.5669 35.2506 14.6723 35.6648 14.8831 35.9735C15.0939 36.2746 15.3913 36.4252 15.7753 36.4252C16.1593 36.4252 16.453 36.2746 16.6563 35.9735C16.8671 35.6648 16.9725 35.2506 16.9725 34.7311ZM19.9928 31.9754C20.2789 31.8925 20.6479 31.8172 21.0996 31.7495C21.5514 31.6742 22.0257 31.6365 22.5227 31.6365C23.0272 31.6365 23.445 31.7043 23.7763 31.8398C24.1152 31.9678 24.3825 32.1523 24.5782 32.3932C24.774 32.6342 24.9133 32.9203 24.9961 33.2516C25.0789 33.5829 25.1203 33.9518 25.1203 34.3584V37.7128H23.4375V34.5617C23.4375 34.0196 23.366 33.6356 23.2229 33.4097C23.0799 33.1838 22.8126 33.0709 22.421 33.0709C22.3006 33.0709 22.1726 33.0784 22.037 33.0935C21.9015 33.101 21.781 33.1123 21.6756 33.1274V37.7128H19.9928V31.9754ZM31.0622 36.5043C31.3709 36.5043 31.5893 36.4742 31.7173 36.4139C31.8453 36.3537 31.9093 36.237 31.9093 36.0638C31.9093 35.9283 31.8264 35.8116 31.6608 35.7137C31.4951 35.6083 31.2429 35.4916 30.9041 35.3636C30.6405 35.2657 30.3996 35.1641 30.1813 35.0586C29.9704 34.9532 29.7897 34.829 29.6391 34.6859C29.4885 34.5354 29.3718 34.3584 29.289 34.1551C29.2062 33.9518 29.1648 33.7071 29.1648 33.421C29.1648 32.8638 29.3718 32.4234 29.786 32.0996C30.2001 31.7758 30.7685 31.6139 31.4914 31.6139C31.8528 31.6139 32.1991 31.6478 32.5304 31.7156C32.8617 31.7758 33.1253 31.8436 33.321 31.9189L33.0274 33.229C32.8316 33.1612 32.617 33.101 32.3836 33.0483C32.1577 32.9956 31.9017 32.9692 31.6156 32.9692C31.0885 32.9692 30.825 33.1161 30.825 33.4097C30.825 33.4775 30.8363 33.5377 30.8589 33.5904C30.8815 33.6431 30.9267 33.6958 30.9944 33.7485C31.0622 33.7937 31.1525 33.8464 31.2655 33.9066C31.386 33.9594 31.5365 34.0196 31.7173 34.0874C32.0862 34.2229 32.3911 34.3584 32.6321 34.4939C32.873 34.6219 33.0613 34.765 33.1968 34.9231C33.3398 35.0737 33.4377 35.2431 33.4904 35.4314C33.5507 35.6196 33.5808 35.8379 33.5808 36.0864C33.5808 36.6737 33.3587 37.1179 32.9144 37.4191C32.4777 37.7203 31.8565 37.8709 31.0509 37.8709C30.5238 37.8709 30.0834 37.8257 29.7295 37.7354C29.3831 37.645 29.1422 37.5697 29.0067 37.5095L29.289 36.1429C29.5751 36.2558 29.8688 36.3462 30.17 36.4139C30.4711 36.4742 30.7685 36.5043 31.0622 36.5043ZM37.1085 36.5382C37.2742 36.5382 37.4323 36.5344 37.5829 36.5269C37.7335 36.5194 37.8539 36.5081 37.9443 36.493V35.2168C37.8765 35.2017 37.7749 35.1866 37.6393 35.1716C37.5038 35.1565 37.3796 35.149 37.2666 35.149C37.1085 35.149 36.9579 35.1603 36.8149 35.1829C36.6793 35.1979 36.5589 35.2318 36.4535 35.2845C36.3481 35.3372 36.2652 35.4088 36.205 35.4991C36.1448 35.5895 36.1146 35.7024 36.1146 35.8379C36.1146 36.1015 36.2012 36.2859 36.3744 36.3914C36.5551 36.4892 36.7998 36.5382 37.1085 36.5382ZM36.973 31.6139C37.4699 31.6139 37.8841 31.6704 38.2153 31.7834C38.5466 31.8963 38.8102 32.0582 39.0059 32.269C39.2092 32.4798 39.3523 32.7358 39.4351 33.037C39.5179 33.3382 39.5593 33.6732 39.5593 34.0422V37.5434C39.3184 37.5961 38.9833 37.6563 38.5542 37.7241C38.125 37.7994 37.6055 37.837 36.9956 37.837C36.6116 37.837 36.2615 37.8031 35.9452 37.7354C35.6365 37.6676 35.3692 37.5584 35.1433 37.4078C34.9175 37.2497 34.7443 37.0464 34.6238 36.7979C34.5033 36.5495 34.4431 36.2445 34.4431 35.8831C34.4431 35.5368 34.5109 35.2431 34.6464 35.0022C34.7895 34.7612 34.9777 34.5692 35.2111 34.4262C35.4445 34.2831 35.7118 34.1815 36.013 34.1212C36.3142 34.0535 36.6266 34.0196 36.9504 34.0196C37.1688 34.0196 37.3608 34.0309 37.5264 34.0535C37.6996 34.0685 37.8389 34.0911 37.9443 34.1212V33.9631C37.9443 33.677 37.8577 33.4474 37.6845 33.2742C37.5113 33.101 37.2102 33.0144 36.781 33.0144C36.4949 33.0144 36.2125 33.037 35.9339 33.0822C35.6553 33.1198 35.4144 33.1763 35.2111 33.2516L34.9965 31.8963C35.0944 31.8662 35.2149 31.8361 35.3579 31.8059C35.5085 31.7683 35.6704 31.7382 35.8436 31.7156C36.0168 31.6855 36.1975 31.6629 36.3857 31.6478C36.5815 31.6252 36.7772 31.6139 36.973 31.6139ZM42.5527 37.7128C42.1687 36.9598 41.7772 36.0789 41.3781 35.0699C40.9866 34.061 40.6139 32.9617 40.26 31.7721H42.0445C42.1198 32.0657 42.2064 32.3857 42.3043 32.7321C42.4097 33.0709 42.5151 33.4172 42.6205 33.7711C42.7334 34.1175 42.8426 34.4563 42.948 34.7876C43.061 35.1189 43.1701 35.4201 43.2756 35.6911C43.3734 35.4201 43.4789 35.1189 43.5918 34.7876C43.7047 34.4563 43.8139 34.1175 43.9193 33.7711C44.0323 33.4172 44.1377 33.0709 44.2356 32.7321C44.341 32.3857 44.4313 32.0657 44.5066 31.7721H46.2459C45.892 32.9617 45.5156 34.061 45.1165 35.0699C44.725 36.0789 44.3372 36.9598 43.9532 37.7128H42.5527ZM48.4272 34.6972C48.4272 35.2168 48.5439 35.6346 48.7773 35.9509C49.0107 36.2671 49.3571 36.4252 49.8164 36.4252C49.9669 36.4252 50.1062 36.4215 50.2342 36.4139C50.3622 36.3989 50.4676 36.3838 50.5505 36.3688V33.3081C50.4451 33.2403 50.3058 33.1838 50.1326 33.1386C49.9669 33.0935 49.7975 33.0709 49.6244 33.0709C48.8262 33.0709 48.4272 33.613 48.4272 34.6972ZM52.2333 37.5208C52.0827 37.5659 51.9095 37.6111 51.7138 37.6563C51.518 37.6939 51.3109 37.7278 51.0926 37.7579C50.8818 37.7881 50.6634 37.8107 50.4375 37.8257C50.2192 37.8483 50.0084 37.8596 49.8051 37.8596C49.3156 37.8596 48.8789 37.7881 48.4949 37.645C48.1109 37.5019 47.7872 37.2987 47.5236 37.0351C47.2601 36.7641 47.0568 36.4403 46.9138 36.0638C46.7782 35.6798 46.7105 35.2506 46.7105 34.7763C46.7105 34.2944 46.7707 33.8615 46.8912 33.4775C47.0116 33.0859 47.1848 32.7546 47.4107 32.4836C47.6366 32.2125 47.9114 32.0055 48.2352 31.8624C48.5665 31.7194 48.9429 31.6478 49.3646 31.6478C49.598 31.6478 49.8051 31.6704 49.9858 31.7156C50.174 31.7608 50.3622 31.8248 50.5505 31.9076V29.2196L52.2333 28.9485V37.5208ZM59.3657 34.7311C59.3657 35.1979 59.2979 35.6271 59.1624 36.0186C59.0269 36.4027 58.8311 36.7339 58.5751 37.0125C58.3191 37.2836 58.0104 37.4944 57.649 37.645C57.2951 37.7956 56.8961 37.8709 56.4518 37.8709C56.0151 37.8709 55.6161 37.7956 55.2547 37.645C54.9008 37.4944 54.5958 37.2836 54.3398 37.0125C54.0838 36.7339 53.8843 36.4027 53.7412 36.0186C53.5982 35.6271 53.5266 35.1979 53.5266 34.7311C53.5266 34.2643 53.5982 33.8389 53.7412 33.4549C53.8918 33.0709 54.0951 32.7434 54.3511 32.4723C54.6146 32.2012 54.9234 31.9904 55.2772 31.8398C55.6387 31.6892 56.0302 31.6139 56.4518 31.6139C56.881 31.6139 57.2725 31.6892 57.6264 31.8398C57.9878 31.9904 58.2965 32.2012 58.5525 32.4723C58.8085 32.7434 59.0081 33.0709 59.1511 33.4549C59.2942 33.8389 59.3657 34.2643 59.3657 34.7311ZM57.649 34.7311C57.649 34.2116 57.5436 33.805 57.3328 33.5114C57.1295 33.2102 56.8358 33.0596 56.4518 33.0596C56.0678 33.0596 55.7704 33.2102 55.5596 33.5114C55.3488 33.805 55.2434 34.2116 55.2434 34.7311C55.2434 35.2506 55.3488 35.6648 55.5596 35.9735C55.7704 36.2746 56.0678 36.4252 56.4518 36.4252C56.8358 36.4252 57.1295 36.2746 57.3328 35.9735C57.5436 35.6648 57.649 35.2506 57.649 34.7311Z" fill="#FFC220"/>
</svg>
