<svg width="78" height="64" viewBox="0 0 78 64" fill="none" xmlns="http://www.w3.org/2000/svg">
<path d="M33.8113 11.2308L32.9101 16.4066C32.8803 16.5779 32.8991 16.7542 32.9643 16.9155C33.0294 17.0767 33.1384 17.2165 33.2789 17.3191C33.4193 17.4217 33.5857 17.4829 33.7591 17.4958C33.9326 17.5088 34.1062 17.473 34.2604 17.3924L38.9163 14.9591L43.5604 17.415C43.7141 17.4962 43.8875 17.5329 44.061 17.5208C44.2344 17.5087 44.4011 17.4483 44.542 17.3465C44.683 17.2447 44.7926 17.1055 44.8586 16.9446C44.9246 16.7837 44.9443 16.6076 44.9154 16.4361L44.0399 11.2561L47.8106 7.59816C47.9355 7.47705 48.0239 7.32341 48.066 7.15464C48.1081 6.98586 48.1022 6.80868 48.0488 6.64311C47.9955 6.47755 47.8969 6.33021 47.7642 6.21776C47.6315 6.1053 47.4699 6.03222 47.2979 6.00678L42.1014 5.23827L39.7878 0.521605C39.7112 0.365452 39.5924 0.233848 39.4449 0.141671C39.2974 0.0494943 39.127 0.000421054 38.9531 0H38.9508C38.7772 5.11411e-06 38.6071 0.0484707 38.4595 0.139939C38.312 0.231408 38.1929 0.362246 38.1158 0.517721L35.7795 5.22289L30.5785 5.96576C30.4063 5.99036 30.2444 6.06265 30.1111 6.17445C29.9779 6.28626 29.8786 6.43312 29.8244 6.59843C29.7702 6.76373 29.7634 6.9409 29.8047 7.10988C29.846 7.27887 29.9337 7.43293 30.058 7.55466L33.8113 11.2308ZM36.5283 6.99949C36.6779 6.97812 36.8201 6.92067 36.9426 6.8321C37.0652 6.74353 37.1643 6.6265 37.2315 6.49109L38.9458 3.03874L40.6433 6.49886C40.7099 6.63455 40.8084 6.75202 40.9305 6.84115C41.0525 6.93029 41.1944 6.98841 41.3439 7.01052L45.1572 7.57392L42.3904 10.259C42.2819 10.3643 42.2006 10.4943 42.1536 10.638C42.1065 10.7816 42.0951 10.9346 42.1203 11.0836L42.7628 14.8843L39.3552 13.0819C39.2216 13.0113 39.0728 12.9742 38.9216 12.9738C38.7705 12.9735 38.6215 13.0099 38.4876 13.0799L35.0714 14.8652L35.7323 11.0676C35.7581 10.9187 35.7474 10.7658 35.7011 10.6219C35.6547 10.4781 35.5741 10.3477 35.4661 10.2419L32.7125 7.54456L36.5283 6.99949Z" fill="#F1EFF0"/>
<path d="M58.0328 14.6482L57.2415 19.1953C57.2117 19.3667 57.2304 19.543 57.2955 19.7043C57.3607 19.8655 57.4697 20.0054 57.6101 20.108C57.7506 20.2106 57.917 20.2718 58.0905 20.2848C58.2639 20.2977 58.4375 20.2619 58.5917 20.1813L62.6822 18.0435L66.7621 20.2011C66.9159 20.2823 67.0893 20.319 67.2627 20.3069C67.4362 20.2948 67.6028 20.2344 67.7438 20.1326C67.8847 20.0308 67.9944 19.8916 68.0604 19.7307C68.1264 19.5698 68.146 19.3937 68.1172 19.2222L67.3481 14.6715L70.6607 11.4578C70.7856 11.3367 70.8741 11.183 70.9162 11.0143C70.9583 10.8455 70.9523 10.6683 70.8989 10.5027C70.8456 10.3372 70.747 10.1898 70.6143 10.0774C70.4816 9.96492 70.3201 9.89184 70.148 9.86639L65.5823 9.19174L63.5498 5.04748C63.4732 4.89131 63.3544 4.75969 63.2069 4.66751C63.0593 4.57533 62.889 4.52627 62.715 4.52588H62.7128C62.5392 4.52588 62.3691 4.57435 62.2216 4.66582C62.0741 4.75729 61.955 4.88813 61.8778 5.0436L59.8253 9.17667L55.2564 9.82926C55.0842 9.85385 54.9223 9.92613 54.789 10.0379C54.6558 10.1497 54.5565 10.2965 54.5023 10.4618C54.4481 10.6271 54.4413 10.8042 54.4825 10.9732C54.5238 11.1422 54.6115 11.2963 54.7357 11.418L58.0328 14.6482ZM60.5739 10.9537C60.7235 10.9324 60.8657 10.8749 60.9883 10.7863C61.1108 10.6978 61.2099 10.5807 61.2771 10.4453L62.7075 7.56462L64.1241 10.4523C64.1907 10.588 64.2892 10.7055 64.4113 10.7946C64.5333 10.8837 64.6752 10.9419 64.8247 10.964L68.0066 11.4342L65.6979 13.6738C65.5895 13.779 65.5082 13.9091 65.4612 14.0527C65.4141 14.1963 65.4027 14.3492 65.4279 14.4982L65.964 17.6698L63.1205 16.1662C62.9869 16.0955 62.8381 16.0583 62.687 16.0579C62.5358 16.0575 62.3868 16.094 62.2529 16.164L59.4023 17.6538L59.9538 14.4841C59.9796 14.3352 59.9689 14.1822 59.9226 14.0384C59.8762 13.8946 59.7956 13.7642 59.6876 13.6584L57.3899 11.4088L60.5739 10.9537Z" fill="#F1EFF0"/>
<path d="M10.506 14.6482L9.71479 19.1953C9.68496 19.3667 9.70368 19.543 9.76884 19.7043C9.834 19.8656 9.94299 20.0055 10.0835 20.1081C10.224 20.2107 10.3904 20.2719 10.5639 20.2849C10.7374 20.2978 10.911 20.262 11.0652 20.1813L15.1555 18.0435L19.2359 20.2011C19.3897 20.2824 19.5631 20.3191 19.7366 20.307C19.91 20.2949 20.0767 20.2346 20.2177 20.1327C20.3587 20.0309 20.4683 19.8917 20.5343 19.7308C20.6003 19.5698 20.62 19.3937 20.5911 19.2222L19.8219 14.6715L23.1345 11.4578C23.2594 11.3367 23.3479 11.183 23.3899 11.0143C23.432 10.8455 23.4261 10.6683 23.3727 10.5027C23.3194 10.3372 23.2208 10.1898 23.0881 10.0774C22.9554 9.96492 22.7938 9.89184 22.6218 9.86639L18.055 9.19112L16.0229 5.04748C15.9462 4.89133 15.8275 4.75973 15.6799 4.66755C15.5324 4.57537 15.3621 4.5263 15.1882 4.52588H15.1858C15.0122 4.52588 14.8421 4.57435 14.6946 4.66582C14.5471 4.75729 14.428 4.88813 14.3508 5.0436L12.2983 9.17667L7.72937 9.82926C7.55719 9.85388 7.39534 9.92617 7.26211 10.038C7.12887 10.1498 7.02956 10.2966 6.97541 10.4619C6.92126 10.6272 6.91443 10.8043 6.95568 10.9733C6.99693 11.1422 7.08463 11.2963 7.20885 11.418L10.506 14.6482ZM13.0472 10.9537C13.1969 10.9325 13.3393 10.8751 13.4619 10.7865C13.5845 10.698 13.6838 10.5809 13.7511 10.4455L15.1816 7.56477L16.5981 10.4525C16.6646 10.5882 16.7632 10.7057 16.8853 10.7948C17.0074 10.8839 17.1493 10.9421 17.2988 10.9641L20.4807 11.4343L18.172 13.6739C18.0636 13.7792 17.9823 13.9092 17.9352 14.0528C17.8881 14.1964 17.8767 14.3493 17.9018 14.4984L18.4379 17.67L15.5945 16.1664C15.4609 16.0956 15.3121 16.0585 15.1609 16.0581C15.0098 16.0577 14.8608 16.0941 14.7268 16.1642L11.8756 17.6538L12.4269 14.4841C12.4528 14.3352 12.4421 14.1823 12.3958 14.0384C12.3495 13.8946 12.2689 13.7642 12.1609 13.6584L9.86318 11.4088L13.0472 10.9537Z" fill="#F1EFF0"/>
<path d="M39 21.1271C37.0182 21.1294 35.1181 21.9177 33.7168 23.3191C32.3154 24.7205 31.5271 26.6205 31.5249 28.6024V32.9643C31.5249 34.9469 32.3125 36.8482 33.7143 38.25C35.1162 39.6519 37.0175 40.4394 39 40.4394C40.9825 40.4394 42.8838 39.6519 44.2857 38.25C45.6876 36.8482 46.4751 34.9469 46.4751 32.9643V28.6024C46.4729 26.6205 45.6846 24.7205 44.2833 23.3191C42.8819 21.9177 40.9819 21.1294 39 21.1271ZM44.6106 32.9643C44.6106 34.4524 44.0195 35.8794 42.9673 36.9316C41.9151 37.9838 40.488 38.5749 39 38.5749C37.512 38.5749 36.0849 37.9838 35.0327 36.9316C33.9806 35.8794 33.3894 34.4524 33.3894 32.9643V28.6024C33.3894 27.1144 33.9806 25.6873 35.0327 24.6351C36.0849 23.5829 37.512 22.9918 39 22.9918C40.488 22.9918 41.9151 23.5829 42.9673 24.6351C44.0195 25.6873 44.6106 27.1144 44.6106 28.6024V32.9643Z" fill="#F1EFF0"/>
<path d="M62.1979 24.8235C60.3738 24.8256 58.625 25.5512 57.3351 26.841C56.0452 28.1309 55.3197 29.8797 55.3176 31.7039V35.6691C55.3176 37.4939 56.0425 39.2439 57.3328 40.5342C58.6231 41.8245 60.3732 42.5494 62.1979 42.5494C64.0227 42.5494 65.7727 41.8245 67.0631 40.5342C68.3534 39.2439 69.0783 37.4939 69.0783 35.6691V31.7039C69.0762 29.8797 68.3506 28.1309 67.0608 26.841C65.7709 25.5512 64.0221 24.8256 62.1979 24.8235ZM67.2137 35.669C67.2137 36.9992 66.6853 38.275 65.7446 39.2156C64.804 40.1563 63.5282 40.6847 62.1979 40.6847C60.8677 40.6847 59.5919 40.1563 58.6513 39.2156C57.7106 38.275 57.1822 36.9992 57.1822 35.669V31.7037C57.1822 30.3734 57.7106 29.0977 58.6513 28.157C59.5919 27.2164 60.8677 26.6879 62.1979 26.6879C63.5282 26.6879 64.804 27.2164 65.7446 28.157C66.6853 29.0977 67.2137 30.3734 67.2137 31.7037V35.669Z" fill="#F1EFF0"/>
<path d="M70.1284 43.9422H67.6217C67.3971 43.942 67.1818 43.8527 67.023 43.6939C66.8642 43.5351 66.7748 43.3198 66.7745 43.0953C66.7745 42.8758 66.697 42.6633 66.5556 42.4954C66.4143 42.3274 66.2183 42.2147 66.002 42.1771C65.7858 42.1394 65.5632 42.1793 65.3734 42.2897C65.1837 42.4001 65.039 42.5739 64.9648 42.7805L63.9679 45.558C63.8373 45.9219 63.597 46.2362 63.2802 46.4576C62.9633 46.679 62.5855 46.7966 62.1989 46.7941C61.8123 46.7916 61.4361 46.6692 61.1221 46.4437C60.8081 46.2182 60.5718 45.9008 60.446 45.5353L59.4927 42.7696C59.4412 42.6201 59.3525 42.4862 59.235 42.3805C59.1174 42.2747 58.9749 42.2006 58.8209 42.165C58.6668 42.1295 58.5063 42.1337 58.3543 42.1773C58.2023 42.2209 58.0639 42.3025 57.9521 42.4143L57.9296 42.4366C57.7548 42.6114 57.6566 42.8485 57.6566 43.0957C57.6563 43.3203 57.567 43.5356 57.4082 43.6944C57.2494 43.8532 57.034 43.9425 56.8095 43.9427H54.2667C53.8643 43.9428 53.4624 43.9734 53.0646 44.0344C51.5501 42.8188 49.6659 42.1569 47.7239 42.1582H44.9665C44.6946 42.1582 44.4337 42.0501 44.2414 41.8578C44.0491 41.6655 43.941 41.4047 43.941 41.1327C43.941 40.9132 43.8635 40.7007 43.7222 40.5328C43.5808 40.3648 43.3848 40.2521 43.1685 40.2145C42.9523 40.1768 42.7297 40.2167 42.54 40.3271C42.3502 40.4375 42.2055 40.6113 42.1313 40.8179L41.0355 43.8734C40.8853 44.2918 40.6089 44.6532 40.2445 44.9078C39.8802 45.1624 39.4457 45.2977 39.0012 45.2948C38.5567 45.292 38.124 45.1512 37.763 44.8919C37.4019 44.6327 37.1302 44.2677 36.9854 43.8475L35.9367 40.8044C35.8852 40.6548 35.7964 40.5208 35.6788 40.4151C35.5611 40.3093 35.4185 40.2352 35.2644 40.1997C35.1102 40.1642 34.9495 40.1686 34.7975 40.2123C34.6455 40.2561 34.5071 40.3378 34.3954 40.4498L34.3707 40.4745C34.1963 40.6493 34.0984 40.886 34.0984 41.1328C34.0984 41.4048 33.9904 41.6657 33.7981 41.858C33.6058 42.0503 33.3449 42.1583 33.0729 42.1583H30.2761C28.3337 42.157 26.4492 42.8191 24.9345 44.0352C24.537 43.9739 24.1355 43.943 23.7333 43.9427H21.2266C21.002 43.9425 20.7867 43.8532 20.6279 43.6944C20.4691 43.5356 20.3797 43.3203 20.3794 43.0957C20.3794 42.8762 20.3019 42.6638 20.1606 42.4958C20.0192 42.3279 19.8232 42.2151 19.6069 42.1775C19.3907 42.1399 19.1681 42.1798 18.9784 42.2902C18.7886 42.4006 18.6439 42.5744 18.5697 42.7809L17.5733 45.558C17.4427 45.9219 17.2023 46.2362 16.8855 46.4576C16.5686 46.679 16.1908 46.7965 15.8042 46.794C15.4177 46.7916 15.0414 46.6691 14.7274 46.4437C14.4134 46.2182 14.1771 45.9008 14.0512 45.5353L13.0979 42.7696C13.0464 42.6201 12.9577 42.4861 12.8401 42.3803C12.7226 42.2746 12.5801 42.2004 12.4259 42.1649C12.2718 42.1294 12.1112 42.1336 11.9592 42.1773C11.8072 42.2209 11.6688 42.3025 11.5571 42.4144L11.5347 42.4368C11.36 42.6116 11.2618 42.8486 11.2618 43.0957C11.2616 43.3203 11.1723 43.5356 11.0135 43.6944C10.8547 43.8531 10.6394 43.9425 10.4149 43.9427H7.87178C5.78487 43.9451 3.78411 44.7751 2.30839 46.2508C0.832675 47.7264 0.00250853 49.7271 0 51.814V62.7188C0 62.966 0.0982212 63.2032 0.273056 63.378C0.447891 63.5528 0.685017 63.6511 0.932271 63.6511H77.0677C77.315 63.6511 77.5521 63.5528 77.7269 63.378C77.9018 63.2032 78 62.966 78 62.7188V51.814C77.9977 49.727 77.1676 47.7262 75.6919 46.2505C74.2162 44.7747 72.2154 43.9446 70.1284 43.9422ZM21.7106 50.7236V61.7865H1.86454V51.814C1.86635 50.2214 2.49984 48.6944 3.62602 47.5683C4.75221 46.4421 6.27912 45.8086 7.87178 45.8068H10.4146C10.9824 45.8076 11.536 45.6291 11.9965 45.2968L12.2881 46.1435C12.5399 46.8739 13.0122 47.5082 13.6398 47.9588C14.2675 48.4094 15.0195 48.654 15.7921 48.6589C16.5647 48.6638 17.3198 48.4288 17.9531 47.9862C18.5865 47.5437 19.0668 46.9154 19.3278 46.1882L19.6471 45.2987C20.0828 45.6125 20.6022 45.7891 21.1388 45.806C21.1557 45.806 21.173 45.8072 21.1902 45.8072H23.2682C22.2534 47.2456 21.7092 48.9632 21.7106 50.7236ZM54.4249 61.7865H23.5751V50.7236C23.5772 48.947 24.2838 47.2438 25.5401 45.9876C26.7963 44.7314 28.4995 44.0247 30.2761 44.0227H33.0729C33.7214 44.0235 34.3511 43.805 34.8598 43.4029L35.2223 44.4553C35.4929 45.2406 36.0006 45.9225 36.6753 46.4069C37.3501 46.8913 38.1586 47.1544 38.9892 47.1596C39.8198 47.1649 40.6315 46.9122 41.3124 46.4365C41.9932 45.9607 42.5096 45.2853 42.7901 44.5035L43.184 43.4059C43.6671 43.7865 44.2595 44.0022 44.8742 44.0212C44.8916 44.0223 44.9092 44.0227 44.9268 44.0227H47.7236C49.5002 44.0247 51.2035 44.7314 52.4597 45.9877C53.716 47.244 54.4226 48.9473 54.4246 50.7239L54.4249 61.7865ZM76.1355 61.7865H56.2894V50.7236C56.2908 48.963 55.7465 47.2453 54.7315 45.8068H56.8095C57.3773 45.8075 57.9308 45.6291 58.3912 45.2968L58.6829 46.1435C58.9347 46.8739 59.407 47.5082 60.0346 47.9588C60.6623 48.4094 61.4143 48.654 62.1869 48.6589C62.9595 48.6638 63.7146 48.4288 64.3479 47.9862C64.9812 47.5437 65.4616 46.9154 65.7226 46.1882L66.0419 45.2987C66.4776 45.6125 66.9969 45.7891 67.5336 45.806C67.5505 45.806 67.5677 45.8072 67.5848 45.8072H70.1277C71.7204 45.8089 73.2474 46.4423 74.3737 47.5684C75.4999 48.6945 76.1335 50.2214 76.1355 51.814V61.7865Z" fill="#F1EFF0"/>
<path d="M8.92212 31.7039V35.6691C8.92212 36.5727 9.10008 37.4673 9.44585 38.3021C9.79162 39.1369 10.2984 39.8953 10.9373 40.5342C11.5762 41.1731 12.3347 41.6799 13.1695 42.0257C14.0042 42.3715 14.8989 42.5494 15.8024 42.5494C16.706 42.5494 17.6007 42.3715 18.4354 42.0257C19.2702 41.6799 20.0287 41.1731 20.6676 40.5342C21.3064 39.8953 21.8132 39.1369 22.159 38.3021C22.5048 37.4673 22.6827 36.5727 22.6827 35.6691V31.7039C22.6827 29.8791 21.9579 28.1291 20.6676 26.8387C19.3772 25.5484 17.6272 24.8235 15.8024 24.8235C13.9777 24.8235 12.2276 25.5484 10.9373 26.8387C9.64701 28.1291 8.92212 29.8791 8.92212 31.7039ZM20.8182 31.7039V35.6691C20.8182 36.9994 20.2898 38.2752 19.3491 39.2158C18.4085 40.1564 17.1327 40.6849 15.8024 40.6849C14.4722 40.6849 13.1964 40.1564 12.2557 39.2158C11.3151 38.2752 10.7867 36.9994 10.7867 35.6691V31.7039C10.7867 30.3736 11.3151 29.0978 12.2557 28.1572C13.1964 27.2165 14.4722 26.6881 15.8024 26.6881C17.1327 26.6881 18.4085 27.2165 19.3491 28.1572C20.2898 29.0978 20.8182 30.3736 20.8182 31.7039Z" fill="#F1EFF0"/>
</svg>
