<svg width="59" height="72" viewBox="0 0 59 72" fill="none" xmlns="http://www.w3.org/2000/svg">
<path d="M57.0126 24.6763L42.4975 19.0541C43.2566 16.897 43.4876 14.5893 43.1709 12.3245C42.8543 10.0597 41.9993 7.90386 40.6776 6.03764C39.356 4.17143 37.6062 2.64926 35.5749 1.59875C33.5437 0.548236 31.2902 0 29.0034 0C26.7165 0 24.4631 0.548236 22.4318 1.59875C20.4006 2.64926 18.6508 4.17143 17.3291 6.03764C16.0075 7.90386 15.1525 10.0597 14.8358 12.3245C14.5192 14.5893 14.7501 16.897 15.5092 19.0541L0.994145 24.6763C0.701147 24.7906 0.449487 24.9907 0.272104 25.2504C0.0947209 25.5101 -0.000118741 25.8173 1.11572e-07 26.1319V59.8007C-8.88398e-05 60.1157 0.0950602 60.4233 0.272957 60.6833C0.450853 60.9432 0.703184 61.1432 0.996824 61.2572L28.4385 71.8947C28.6187 71.9643 28.8102 72 29.0034 72C29.1946 71.9961 29.3834 71.9568 29.5602 71.884L29.5683 71.8947L57.0126 61.2572C57.3057 61.1428 57.5575 60.9426 57.7349 60.6827C57.9123 60.4228 58.007 60.1154 58.0067 59.8007V26.1319C58.0068 25.8173 57.912 25.5101 57.7346 25.2504C57.5572 24.9907 57.3056 24.7906 57.0126 24.6763ZM52.1266 26.1319L47.0604 28.0952L38.6646 24.8646C39.6211 23.9846 40.4539 22.9789 41.1402 21.8751L52.1266 26.1319ZM35.5929 27.0296L42.7322 29.7756L38.7012 31.3373L31.3067 28.4486C32.8019 28.207 34.2489 27.728 35.5929 27.0296ZM40.4521 34.0074L45.6968 31.9745V38.481L44.8196 37.909C44.5127 37.7093 44.1455 37.6236 43.7819 37.667C43.4184 37.7104 43.0816 37.8801 42.8304 38.1464L40.4521 40.6701V34.0074ZM29.0034 3.16297C31.2149 3.16297 33.3768 3.81878 35.2157 5.04747C37.0546 6.27615 38.4878 8.02253 39.3341 10.0658C40.1804 12.109 40.4019 14.3573 39.9704 16.5264C39.539 18.6954 38.474 20.6879 36.9102 22.2517C35.3463 23.8155 33.3539 24.8805 31.1848 25.3119C29.0158 25.7434 26.7675 25.522 24.7242 24.6756C22.681 23.8293 20.9346 22.3961 19.7059 20.5572C18.4773 18.7184 17.8215 16.5565 17.8215 14.3449C17.8248 11.3803 19.0039 8.53803 21.1002 6.44173C23.1965 4.34543 26.0387 3.16628 29.0034 3.16297ZM17.759 23.153L15.669 22.3364L16.8657 21.8724C17.1399 22.3161 17.4381 22.7445 17.759 23.1557V23.153ZM11.3613 24.0061L34.3891 33.0079L29.0034 35.0952L5.8801 26.1319L11.3613 24.0061ZM3.12344 58.7307V28.4129L27.4416 37.8403V68.1582L3.12344 58.7307ZM30.5651 68.1582V37.8403L37.3287 35.2166V44.6057C37.3288 44.9185 37.4229 45.224 37.5987 45.4827C37.7745 45.7415 38.024 45.9414 38.3148 46.0567C38.4978 46.13 38.6932 46.1676 38.8904 46.1674C39.1034 46.1675 39.3141 46.124 39.5096 46.0395C39.7051 45.9551 39.8813 45.8316 40.0273 45.6765L44.2083 41.2386L46.4063 42.6664C46.6419 42.8187 46.9141 42.9047 47.1944 42.9155C47.4747 42.9262 47.7527 42.8612 47.9993 42.7273C48.2458 42.5935 48.4517 42.3957 48.5954 42.1548C48.7391 41.9139 48.8152 41.6387 48.8158 41.3582V30.7635L54.8833 28.4129V58.7307L30.5651 68.1582Z" fill="#F1EFF0"/>
<path d="M26.2218 18.9408C26.5098 19.1846 26.8764 19.3158 27.2537 19.3102C27.6311 19.3046 27.9936 19.1626 28.2743 18.9104L35.8482 12.1031C36.0087 11.9683 36.1405 11.8026 36.2356 11.6159C36.3307 11.4291 36.3872 11.2251 36.4018 11.016C36.4164 10.8069 36.3888 10.597 36.3206 10.3988C36.2523 10.2007 36.1449 10.0182 36.0047 9.86244C35.8645 9.70665 35.6944 9.58068 35.5044 9.49203C35.3145 9.40338 35.1087 9.35387 34.8992 9.34644C34.6898 9.33901 34.481 9.37382 34.2852 9.4488C34.0895 9.52378 33.9109 9.63739 33.76 9.78286L27.199 15.6808L24.2112 13.1553C23.8949 12.8878 23.4852 12.757 23.0724 12.7916C22.6597 12.8261 22.2775 13.0232 22.01 13.3396C21.7426 13.6559 21.6118 14.0655 21.6463 14.4783C21.6809 14.8911 21.878 15.2732 22.1943 15.5407L26.2218 18.9408Z" fill="#F1EFF0"/>
</svg>
