<svg width="56" height="72" viewBox="0 0 56 72" fill="none" xmlns="http://www.w3.org/2000/svg">
<path d="M55.6875 11.7443L43.9432 0H9V38.2885C3.96605 38.7183 0 42.9502 0 48.0938C0 51.0469 1.30894 53.6982 3.375 55.5041V72H5.6932L9.84375 67.8494L13.9943 72H16.3125V64.6875H55.6875V11.7443ZM44.4375 2.8807L52.8068 11.25H44.4375V2.8807ZM1.6875 48.0938C1.6875 43.5964 5.34642 39.9375 9.84375 39.9375C14.3411 39.9375 18 43.5964 18 48.0938C18 52.5911 14.3411 56.25 9.84375 56.25C5.34642 56.25 1.6875 52.5911 1.6875 48.0938ZM9.84375 65.4631L5.0625 70.2443V56.6942C6.4793 57.485 8.10928 57.9376 9.84375 57.9376C11.5782 57.9376 13.2082 57.485 14.625 56.6942V70.2443L9.84375 65.4631ZM16.3125 63V55.5041C18.3786 53.6982 19.6875 51.0469 19.6875 48.0938C19.6875 42.9504 15.7215 38.7184 10.6875 38.2885V1.6875H42.75V12.9375H54V63H16.3125Z" fill="#F1EFF0"/>
<path d="M16.5938 9H30.0937V10.6875H16.5938V9Z" fill="#F1EFF0"/>
<path d="M16.5938 13.5H25.5938V15.1875H16.5938V13.5Z" fill="#F1EFF0"/>
<path d="M16.5938 20.25H48.0937V21.9375H16.5938V20.25Z" fill="#F1EFF0"/>
<path d="M16.5938 24.75H48.0937V26.4375H16.5938V24.75Z" fill="#F1EFF0"/>
<path d="M16.5938 33.75H48.0937V35.4375H16.5938V33.75Z" fill="#F1EFF0"/>
<path d="M21.0938 38.25H43.5938V39.9375H21.0938V38.25Z" fill="#F1EFF0"/>
<path d="M16.5938 29.25H48.0937V30.9375H16.5938V29.25Z" fill="#F1EFF0"/>
<path d="M34.5938 45H48.0937V46.6875H34.5938V45Z" fill="#F1EFF0"/>
<path d="M39.0938 49.5H48.0938V51.1875H39.0938V49.5Z" fill="#F1EFF0"/>
<path d="M9.84375 53.4375C12.7903 53.4375 15.1875 51.0403 15.1875 48.0938C15.1875 45.1472 12.7903 42.75 9.84375 42.75C6.89723 42.75 4.5 45.1472 4.5 48.0938C4.5 51.0403 6.89723 53.4375 9.84375 53.4375ZM9.84375 44.4375C11.8599 44.4375 13.5 46.0776 13.5 48.0938C13.5 50.1099 11.8599 51.75 9.84375 51.75C7.82761 51.75 6.1875 50.1099 6.1875 48.0938C6.1875 46.0776 7.82761 44.4375 9.84375 44.4375Z" fill="#F1EFF0"/>
</svg>
