<svg width="79" height="73" viewBox="0 0 79 73" fill="none" xmlns="http://www.w3.org/2000/svg">
<path d="M73.393 31.3821H69.4523C69.2278 30.5696 68.7449 29.8522 68.0765 29.3384C67.4081 28.8246 66.5906 28.5424 65.7476 28.5345H61.541V18.2475C61.5458 18.0551 61.4992 17.8648 61.4062 17.6963C61.3132 17.5278 61.177 17.387 61.0117 17.2885L31.3364 0.148423C31.1692 0.0512089 30.9792 0 30.7857 0C30.5922 0 30.4022 0.0512089 30.235 0.148423L0.550552 17.2885C0.38259 17.3858 0.243261 17.5257 0.146605 17.6941C0.04995 17.8625 -0.00061535 18.0534 5.65171e-06 18.2475V52.5277C1.05899e-05 52.7221 0.0511827 52.9131 0.148379 53.0814C0.245575 53.2498 0.385371 53.3896 0.553717 53.4868L30.2412 70.6268C30.4095 70.724 30.6005 70.7752 30.7949 70.7752C30.9943 70.7753 31.1904 70.7242 31.3644 70.6268L46.9863 61.616V68.1299C46.9847 68.7501 47.1061 69.3644 47.3436 69.9373C47.581 70.5102 47.9297 71.0304 48.3695 71.4676C48.8093 71.9049 49.3314 72.2506 49.9057 72.4846C50.48 72.7187 51.095 72.8366 51.7152 72.8314H73.393C74.0147 72.8372 74.6315 72.7199 75.2077 72.4864C75.784 72.2529 76.3084 71.9077 76.7507 71.4708C77.1931 71.0338 77.5446 70.5137 77.7852 69.9403C78.0257 69.3669 78.1505 68.7517 78.1524 68.1299V36.157C78.1516 34.8936 77.6504 33.6818 76.7585 32.787C75.8665 31.8921 74.6564 31.387 73.393 31.3821ZM65.787 30.7493C66.2134 30.7493 66.6222 30.9187 66.9237 31.2202C67.2252 31.5216 67.3945 31.9305 67.3945 32.3568V32.4641C67.3945 32.8904 67.2252 33.2993 66.9237 33.6008C66.6222 33.9022 66.2134 34.0716 65.787 34.0716H59.3517C58.9253 34.0716 58.5164 33.9022 58.215 33.6008C57.9135 33.2993 57.7441 32.8904 57.7441 32.4641V32.3568C57.7441 31.9305 57.9135 31.5216 58.215 31.2202C58.5164 30.9187 58.9253 30.7493 59.3517 30.7493H65.787ZM30.7949 2.38621L43.1306 9.50819L15.6599 25.3684L3.32433 18.2464L30.7949 2.38621ZM29.7422 67.7496L2.21485 51.8883V20.1632L29.7422 36.0245V67.7496ZM30.7949 34.1064L17.8747 26.647L45.3454 10.787L58.2662 18.2464L30.7949 34.1064ZM46.9863 36.157V59.0587L31.957 67.7496V36.0245L59.3262 20.1632V28.5345H59.3605C58.5175 28.5424 57.7 28.8246 57.0316 29.3384C56.3633 29.8521 55.8803 30.5696 55.6559 31.3821H51.7152C50.4549 31.3883 49.2487 31.8948 48.3619 32.7902C47.475 33.6857 46.9802 34.8968 46.9863 36.157ZM75.9375 68.1299C75.936 68.4609 75.8687 68.7883 75.7396 69.0931C75.6104 69.3979 75.422 69.674 75.1853 69.9054C74.9485 70.1367 74.6682 70.3187 74.3605 70.4408C74.0528 70.5629 73.7239 70.6226 73.393 70.6165H51.7152C51.3858 70.6221 51.0587 70.5617 50.7529 70.4391C50.4472 70.3164 50.1691 70.1339 49.9349 69.9023C49.7007 69.6706 49.5151 69.3945 49.3891 69.0901C49.2631 68.7858 49.1992 68.4593 49.2012 68.1299V36.157C49.1978 35.8238 49.2603 35.4931 49.3848 35.184C49.5094 34.8749 49.6938 34.5934 49.9273 34.3556C50.1608 34.1179 50.4389 33.9285 50.7457 33.7983C51.0525 33.6681 51.3819 33.5997 51.7152 33.597H55.6991C55.9366 34.3809 56.4217 35.0667 57.0819 35.5515C57.742 36.0364 58.5415 36.2943 59.3605 36.2864H65.7476C66.5667 36.2943 67.3661 36.0364 68.0262 35.5515C68.6863 35.0667 69.1715 34.3809 69.4089 33.597H73.393C74.0692 33.6013 74.7163 33.8728 75.193 34.3525C75.6697 34.8321 75.9373 35.4808 75.9375 36.157V68.1299Z" fill="#F1EFF0"/>
<path d="M52.99 47.3604H54.1492C54.4429 47.3604 54.7245 47.2437 54.9322 47.036C55.1399 46.8283 55.2566 46.5466 55.2566 46.2529C55.2566 45.9592 55.1399 45.6775 54.9322 45.4699C54.7245 45.2622 54.4429 45.1455 54.1492 45.1455H54.1055V42.1396H57.1599C57.2294 42.3623 57.3701 42.556 57.5602 42.6911C57.7504 42.8262 57.9796 42.8952 58.2128 42.8875C58.5068 42.8883 58.7892 42.7724 58.9979 42.5653C59.2067 42.3581 59.3247 42.0767 59.3262 41.7826V41.0374C59.3237 40.742 59.2047 40.4594 58.9951 40.2511C58.7856 40.0427 58.5023 39.9255 58.2068 39.9248H52.99C52.8447 39.9256 52.701 39.9549 52.5671 40.0113C52.4332 40.0676 52.3117 40.1498 52.2096 40.2532C52.1075 40.3565 52.0268 40.479 51.972 40.6135C51.9173 40.7481 51.8897 40.8922 51.8907 41.0374V46.2542C51.8898 46.3991 51.9176 46.5428 51.9724 46.677C52.0273 46.8111 52.1081 46.9331 52.2103 47.0359C52.3124 47.1387 52.4339 47.2203 52.5677 47.276C52.7016 47.3317 52.8451 47.3603 52.99 47.3604Z" fill="#F1EFF0"/>
<path d="M52.998 57.4854H58.2188C58.5125 57.4854 58.7941 57.3687 59.0018 57.161C59.2095 56.9533 59.3262 56.6716 59.3262 56.3779V51.1572C59.3262 50.8635 59.2095 50.5818 59.0018 50.3742C58.7941 50.1665 58.5125 50.0498 58.2188 50.0498H52.998C52.7043 50.0498 52.4227 50.1665 52.215 50.3742C52.0073 50.5818 51.8906 50.8635 51.8906 51.1572V56.3779C51.8906 56.6716 52.0073 56.9533 52.215 57.161C52.4227 57.3687 52.7043 57.4854 52.998 57.4854ZM54.1055 52.2646H57.1113V55.2705H54.1055V52.2646Z" fill="#F1EFF0"/>
<path d="M54.1494 65.3955H54.1055V62.3896H57.1002C57.1059 62.6809 57.2255 62.9583 57.4334 63.1623C57.6413 63.3663 57.9208 63.4808 58.2121 63.4811C58.5034 63.4814 58.7832 63.3675 58.9915 63.1639C59.1998 62.9602 59.3199 62.6831 59.3262 62.3919V61.3248C59.3251 61.0254 59.2078 60.7381 58.9989 60.5236C58.7901 60.309 58.5061 60.184 58.2068 60.1748H52.9901C52.6929 60.1848 52.4114 60.3107 52.2059 60.5257C52.0005 60.7406 51.8873 61.0275 51.8907 61.3248V66.5415C51.8906 66.6845 51.9191 66.8261 51.9747 66.9578C52.0303 67.0896 52.1118 67.2088 52.2143 67.3085C52.3168 67.4082 52.4383 67.4863 52.5716 67.5381C52.7048 67.59 52.8471 67.6145 52.9901 67.6104H54.1494C54.4431 67.6104 54.7247 67.4937 54.9324 67.286C55.1401 67.0783 55.2568 66.7966 55.2568 66.5029C55.2568 66.2092 55.1401 65.9275 54.9324 65.7199C54.7247 65.5122 54.4431 65.3955 54.1494 65.3955Z" fill="#F1EFF0"/>
<path d="M60.7565 41.2848L57.5134 44.528L56.5268 43.5413C56.424 43.4384 56.3019 43.3568 56.1675 43.3012C56.0332 43.2455 55.8891 43.2169 55.7437 43.2169C55.5983 43.2169 55.4543 43.2455 55.3199 43.3012C55.1855 43.3568 55.0634 43.4384 54.9606 43.5413C54.8578 43.6441 54.7762 43.7662 54.7205 43.9006C54.6649 44.0349 54.6362 44.1789 54.6362 44.3244C54.6362 44.4698 54.6649 44.6138 54.7205 44.7482C54.7762 44.8825 54.8578 45.0046 54.9606 45.1075L56.7304 46.8771C56.8333 46.98 56.9553 47.0616 57.0897 47.1172C57.2241 47.1729 57.3681 47.2015 57.5135 47.2015C57.659 47.2015 57.803 47.1729 57.9373 47.1172C58.0717 47.0616 58.1938 46.98 58.2966 46.8771L62.3232 42.8505C62.5309 42.6429 62.6476 42.3612 62.6476 42.0674C62.6476 41.7737 62.5309 41.492 62.3232 41.2843C62.1155 41.0766 61.8338 40.96 61.5401 40.96C61.2464 40.96 60.9647 41.0766 60.757 41.2843L60.7565 41.2848Z" fill="#F1EFF0"/>
<path d="M60.7565 61.7321L57.5134 64.9752L56.5268 63.9885C56.424 63.8857 56.3019 63.8041 56.1675 63.7485C56.0332 63.6928 55.8891 63.6642 55.7437 63.6642C55.5983 63.6642 55.4543 63.6928 55.3199 63.7485C55.1855 63.8041 55.0634 63.8857 54.9606 63.9885C54.8578 64.0914 54.7762 64.2135 54.7205 64.3478C54.6649 64.4822 54.6362 64.6262 54.6362 64.7716C54.6362 64.9171 54.6649 65.0611 54.7205 65.1954C54.7762 65.3298 54.8578 65.4519 54.9606 65.5547L56.7304 67.3244C56.8333 67.4272 56.9553 67.5088 57.0897 67.5645C57.2241 67.6201 57.3681 67.6488 57.5135 67.6488C57.659 67.6488 57.803 67.6201 57.9373 67.5645C58.0717 67.5088 58.1938 67.4272 58.2966 67.3244L62.3232 63.2978C62.5309 63.0901 62.6476 62.8084 62.6476 62.5147C62.6476 62.221 62.5309 61.9393 62.3232 61.7316C62.1155 61.5239 61.8338 61.4072 61.5401 61.4072C61.2464 61.4072 60.9647 61.5239 60.757 61.7316L60.7565 61.7321Z" fill="#F1EFF0"/>
<path d="M72.1182 42.6143H65.1626C64.8689 42.6143 64.5872 42.7309 64.3795 42.9386C64.1719 43.1463 64.0552 43.428 64.0552 43.7217C64.0552 44.0154 64.1719 44.2971 64.3795 44.5047C64.5872 44.7124 64.8689 44.8291 65.1626 44.8291H72.1182C72.4119 44.8291 72.6935 44.7124 72.9012 44.5047C73.1089 44.2971 73.2256 44.0154 73.2256 43.7217C73.2256 43.428 73.1089 43.1463 72.9012 42.9386C72.6935 42.7309 72.4119 42.6143 72.1182 42.6143Z" fill="#F1EFF0"/>
<path d="M72.1182 52.7393H65.1626C64.8689 52.7393 64.5872 52.8559 64.3795 53.0636C64.1719 53.2713 64.0552 53.553 64.0552 53.8467C64.0552 54.1404 64.1719 54.4221 64.3795 54.6297C64.5872 54.8374 64.8689 54.9541 65.1626 54.9541H72.1182C72.4119 54.9541 72.6935 54.8374 72.9012 54.6297C73.1089 54.4221 73.2256 54.1404 73.2256 53.8467C73.2256 53.553 73.1089 53.2713 72.9012 53.0636C72.6935 52.8559 72.4119 52.7393 72.1182 52.7393Z" fill="#F1EFF0"/>
<path d="M72.1182 62.8643H65.1626C64.8689 62.8643 64.5872 62.9809 64.3795 63.1886C64.1719 63.3963 64.0552 63.678 64.0552 63.9717C64.0552 64.2654 64.1719 64.5471 64.3795 64.7547C64.5872 64.9624 64.8689 65.0791 65.1626 65.0791H72.1182C72.4119 65.0791 72.6935 64.9624 72.9012 64.7547C73.1089 64.5471 73.2256 64.2654 73.2256 63.9717C73.2256 63.678 73.1089 63.3963 72.9012 63.1886C72.6935 62.9809 72.4119 62.8643 72.1182 62.8643Z" fill="#F1EFF0"/>
</svg>
