<svg width="18" height="17" viewBox="0 0 18 17" fill="none" xmlns="http://www.w3.org/2000/svg">
<path d="M9 16.0142C8.74374 16.0142 8.49669 15.9214 8.30415 15.7527C7.577 15.1169 6.87593 14.5194 6.2574 13.9923L6.25424 13.9896C4.44081 12.4442 2.87485 11.1096 1.78528 9.795C0.567307 8.3253 0 6.93182 0 5.40953C0 3.9305 0.507156 2.56599 1.42795 1.5672C2.35973 0.556595 3.63826 0 5.02844 0C6.06747 0 7.01903 0.328491 7.8566 0.976273C8.2793 1.30325 8.66245 1.70343 9 2.17021C9.33769 1.70343 9.7207 1.30325 10.1435 0.976273C10.9811 0.328491 11.9327 0 12.9717 0C14.3617 0 15.6404 0.556595 16.5722 1.5672C17.493 2.56599 18 3.9305 18 5.40953C18 6.93182 17.4328 8.3253 16.2149 9.79486C15.1253 11.1096 13.5595 12.4441 11.7463 13.9893C11.1267 14.5172 10.4245 15.1157 9.69571 15.753C9.50331 15.9214 9.25612 16.0142 9 16.0142ZM5.02844 1.05441C3.93626 1.05441 2.93294 1.4903 2.20303 2.28186C1.46228 3.08537 1.05428 4.19609 1.05428 5.40953C1.05428 6.68985 1.53012 7.8349 2.59703 9.12222C3.62823 10.3666 5.16206 11.6737 6.938 13.1872L6.9413 13.1899C7.56216 13.719 8.26598 14.3189 8.99849 14.9594C9.7354 14.3177 10.4403 13.7168 11.0624 13.1869C12.8382 11.6734 14.3719 10.3666 15.4031 9.12222C16.4699 7.8349 16.9457 6.68985 16.9457 5.40953C16.9457 4.19609 16.5377 3.08537 15.797 2.28186C15.0672 1.4903 14.0637 1.05441 12.9717 1.05441C12.1716 1.05441 11.437 1.30875 10.7884 1.81027C10.2104 2.25742 9.80777 2.82266 9.5717 3.21817C9.4503 3.42155 9.23662 3.54295 9 3.54295C8.76338 3.54295 8.5497 3.42155 8.4283 3.21817C8.19237 2.82266 7.78972 2.25742 7.21156 1.81027C6.56296 1.30875 5.82838 1.05441 5.02844 1.05441Z" fill="#FF0000"/>
</svg>
