<svg width="19" height="14" viewBox="0 0 19 14" fill="none" xmlns="http://www.w3.org/2000/svg">
<g opacity="0.7">
<path d="M18.7228 10.9318H18.1667V1.13907C18.1667 0.510995 17.6557 0 17.0276 0H1.97232C1.34421 0 0.833215 0.510995 0.833215 1.13907V10.9318H0.277206C0.124131 10.9318 0 11.0559 0 11.209V11.5409C0 12.3605 0.66678 13.0273 1.48638 13.0273H13.6578C13.8109 13.0273 13.935 12.9032 13.935 12.7501C13.935 12.597 13.8109 12.4729 13.6578 12.4729H1.48638C0.972449 12.4729 0.554376 12.0548 0.554376 11.5409V11.4862H7.17171V11.9795C7.17171 12.1326 7.2958 12.2567 7.44891 12.2567H11.5511C11.7042 12.2567 11.8283 12.1326 11.8283 11.9795V11.4862H18.4456V11.5409C18.4456 12.0548 18.0275 12.4729 17.5136 12.4729H15.6167C15.4636 12.4729 15.3395 12.597 15.3395 12.7501C15.3395 12.9032 15.4636 13.0273 15.6167 13.0273H17.5136C18.3332 13.0273 19 12.3604 19 11.5409V11.209C19 11.0559 18.8759 10.9318 18.7228 10.9318ZM11.2739 11.7023H7.72608V11.4861H11.2739V11.7023ZM17.6124 10.9084H1.38763V1.13907C1.38763 0.816665 1.64992 0.554376 1.97236 0.554376H17.0276C17.35 0.554376 17.6124 0.816665 17.6124 1.13907V10.9084Z" fill="black"/>
<path d="M16.3394 1.08142H2.66043C2.20837 1.08142 1.84058 1.44921 1.84058 1.90131V4.85058C1.84058 5.00369 1.96467 5.12778 2.11778 5.12778C2.2709 5.12778 2.39499 5.00369 2.39499 4.85058V1.90131C2.39499 1.75492 2.51407 1.63583 2.66043 1.63583H16.3394C16.4858 1.63583 16.6048 1.75495 16.6048 1.90131V9.86159H2.39499V6.84631C2.39499 6.6932 2.2709 6.56911 2.11778 6.56911C1.96467 6.56911 1.84058 6.6932 1.84058 6.84631V10.1388C1.84058 10.2919 1.96467 10.416 2.11778 10.416H16.8821C17.0352 10.416 17.1593 10.2919 17.1593 10.1388V1.90128C17.1593 1.44917 16.7915 1.08142 16.3394 1.08142Z" fill="black"/>
</g>
</svg>
