<svg width="16" height="17" viewBox="0 0 16 17" fill="none" xmlns="http://www.w3.org/2000/svg">
<path d="M9.46584 8.01947L15.6959 1.78921C16.1014 1.38396 16.1014 0.728723 15.6959 0.323471C15.2907 -0.0817819 14.6354 -0.0817819 14.2302 0.323471L7.99991 6.55373L1.76983 0.323471C1.36438 -0.0817819 0.709335 -0.0817819 0.304082 0.323471C-0.101361 0.728723 -0.101361 1.38396 0.304082 1.78921L6.53416 8.01947L0.304082 14.2497C-0.101361 14.655 -0.101361 15.3102 0.304082 15.7155C0.506044 15.9176 0.771594 16.0192 1.03695 16.0192C1.30231 16.0192 1.56767 15.9176 1.76983 15.7155L7.99991 9.48522L14.2302 15.7155C14.4323 15.9176 14.6977 16.0192 14.963 16.0192C15.2284 16.0192 15.4938 15.9176 15.6959 15.7155C16.1014 15.3102 16.1014 14.655 15.6959 14.2497L9.46584 8.01947Z" fill="#797979"/>
</svg>
