<svg width="16" height="16" viewBox="0 0 16 16" fill="none" xmlns="http://www.w3.org/2000/svg">
<g opacity="0.7">
<path d="M15.7419 0H2.83871C2.69594 0 2.58065 0.115675 2.58065 0.258065V9.83329C2.49672 9.81628 2.41053 9.80645 2.32258 9.80645C1.61114 9.80645 1.03226 10.3853 1.03226 11.0968V11.1022C0.779864 11.2921 0.607989 11.5667 0.544481 11.871H0.258065C0.115297 11.871 0 11.9866 0 12.129V13.1613C0 13.3037 0.115297 13.4194 0.258065 13.4194H0.516129V14.1935C0.516129 15.1896 1.32674 16 2.32258 16H15.7419C15.8847 16 16 15.8843 16 15.7419V0.258065C16 0.115675 15.8847 0 15.7419 0ZM15.4839 0.516129V3.09677H3.09677V0.516129H15.4839ZM1.43044 11.4573C1.52205 11.4056 1.57346 11.3037 1.55998 11.1992L1.55582 11.1692C1.55255 11.1455 1.54839 11.1218 1.54839 11.0968C1.54839 10.67 1.89579 10.3226 2.32258 10.3226C2.59514 10.3226 2.84262 10.4647 2.98475 10.7033C3.02344 10.7683 3.08909 10.8131 3.16381 10.8256C3.23891 10.8385 3.3154 10.817 3.37336 10.7678C3.47404 10.6823 3.64176 10.5806 3.87097 10.5806C4.14705 10.5806 4.40436 10.7331 4.54246 10.9786C4.59614 11.0746 4.70552 11.1256 4.81288 11.1064C5.08228 11.0583 5.35824 11.2433 5.40953 11.5174C5.42792 11.6154 5.50113 11.6944 5.59791 11.7198C5.69519 11.7456 5.79688 11.7122 5.86139 11.6356C6.01033 11.4573 6.22555 11.3548 6.45161 11.3548C6.78755 11.3548 7.07145 11.5713 7.1783 11.871H1.08392C1.14655 11.7001 1.26474 11.5504 1.43044 11.4573ZM4.90323 9.03226C4.90323 6.61315 6.87122 4.64516 9.29032 4.64516C11.7094 4.64516 13.6774 6.61315 13.6774 9.03226C13.6774 11.4514 11.7094 13.4194 9.29032 13.4194C8.92616 13.4194 8.57006 13.3703 8.22329 13.2834C8.24357 13.2465 8.25806 13.2061 8.25806 13.1613V12.7634C8.59249 12.8557 8.938 12.9032 9.29032 12.9032C11.4248 12.9032 13.1613 11.1667 13.1613 9.03226C13.1613 6.89781 11.4248 5.16129 9.29032 5.16129C7.15587 5.16129 5.41935 6.89781 5.41935 9.03226C5.41935 9.71257 5.59614 10.3688 5.92981 10.9517C5.87198 10.9778 5.81578 11.0074 5.76235 11.0421C5.63143 10.8449 5.43485 10.6991 5.20728 10.6284C5.00832 10.12 4.90323 9.58455 4.90323 9.03226ZM6.46661 10.8402C6.26121 10.5205 6.11177 10.1724 6.02533 9.80645H6.19355C6.42868 9.80645 6.65008 9.71484 6.81653 9.54839L6.96774 9.39743C7.10585 9.25932 7.34577 9.25932 7.48387 9.39743L7.63508 9.54839C7.96825 9.88105 8.54788 9.8813 8.88105 9.54839L9.03226 9.39743C9.17036 9.25932 9.41028 9.25932 9.54839 9.39743L9.6996 9.54839C10.0328 9.88105 10.6124 9.8813 10.9456 9.54839L11.0968 9.39743C11.2349 9.25932 11.4748 9.25932 11.6129 9.39743L11.7641 9.54839C11.9308 9.71484 12.152 9.80645 12.3871 9.80645H12.5515C12.2005 11.2836 10.8732 12.3871 9.29032 12.3871C8.93624 12.3871 8.59047 12.3293 8.25806 12.2216V12.129C8.25806 11.9866 8.14277 11.871 8 11.871H7.71585C7.5969 11.2874 7.08279 10.8475 6.46661 10.8402ZM5.93548 9.03226C5.93548 7.18246 7.44052 5.67742 9.29032 5.67742C11.1401 5.67742 12.6452 7.18246 12.6452 9.03226C12.6452 9.11946 12.6387 9.20489 12.6321 9.29032H12.3871C12.2896 9.29032 12.1982 9.25239 12.129 9.18347L11.9778 9.03226C11.6447 8.6996 11.065 8.69934 10.7319 9.03226L10.5806 9.18322C10.4425 9.32132 10.2026 9.32132 10.0645 9.18322L9.91331 9.03226C9.58014 8.6996 9.0005 8.69934 8.66734 9.03226L8.51613 9.18322C8.37802 9.32132 8.1381 9.32132 8 9.18322L7.84879 9.03226C7.51562 8.6996 6.93599 8.69934 6.60282 9.03226L6.45161 9.18322C6.38243 9.25239 6.29108 9.29032 6.19355 9.29032H5.94531C5.93889 9.20489 5.93548 9.1187 5.93548 9.03226ZM0.516129 12.3871H7.74194V12.9032H0.516129V12.3871ZM5.67742 15.4839H2.32258C1.61114 15.4839 1.03226 14.905 1.03226 14.1935V13.4194H7.22581V14.1935C7.22581 14.905 6.64692 15.4839 5.93548 15.4839H5.67742ZM7.1972 15.4839C7.53289 15.1556 7.74194 14.6988 7.74194 14.1935V13.6816C8.23954 13.8475 8.75819 13.9355 9.29032 13.9355C11.9941 13.9355 14.1935 11.736 14.1935 9.03226C14.1935 6.3285 11.9941 4.12903 9.29032 4.12903C6.58657 4.12903 4.3871 6.3285 4.3871 9.03226C4.3871 9.45212 4.44519 9.8624 4.54864 10.2617C4.34791 10.1357 4.11429 10.0645 3.87097 10.0645C3.66016 10.0645 3.45161 10.1184 3.26499 10.2199C3.21371 10.1642 3.15612 10.1162 3.09677 10.0707V3.6129H15.4839V15.4839H7.1972Z" fill="black"/>
<path d="M4.38699 2.58061C4.81378 2.58061 5.16118 2.23321 5.16118 1.80642C5.16118 1.37963 4.81378 1.03223 4.38699 1.03223C3.9602 1.03223 3.61279 1.37963 3.61279 1.80642C3.61279 2.23321 3.9602 2.58061 4.38699 2.58061ZM4.38699 1.54836C4.52938 1.54836 4.64505 1.66428 4.64505 1.80642C4.64505 1.94856 4.52938 2.06448 4.38699 2.06448C4.2446 2.06448 4.12892 1.94856 4.12892 1.80642C4.12892 1.66428 4.2446 1.54836 4.38699 1.54836Z" fill="black"/>
<path d="M6.45168 2.58061C6.87847 2.58061 7.22588 2.23321 7.22588 1.80642C7.22588 1.37963 6.87847 1.03223 6.45168 1.03223C6.02489 1.03223 5.67749 1.37963 5.67749 1.80642C5.67749 2.23321 6.02489 2.58061 6.45168 2.58061ZM6.45168 1.54836C6.59407 1.54836 6.70975 1.66428 6.70975 1.80642C6.70975 1.94856 6.59407 2.06448 6.45168 2.06448C6.30929 2.06448 6.19362 1.94856 6.19362 1.80642C6.19362 1.66428 6.30929 1.54836 6.45168 1.54836Z" fill="black"/>
<path d="M8.51614 2.58061C8.94293 2.58061 9.29033 2.23321 9.29033 1.80642C9.29033 1.37963 8.94293 1.03223 8.51614 1.03223C8.08935 1.03223 7.74194 1.37963 7.74194 1.80642C7.74194 2.23321 8.08935 2.58061 8.51614 2.58061ZM8.51614 1.54836C8.65853 1.54836 8.7742 1.66428 8.7742 1.80642C8.7742 1.94856 8.65853 2.06448 8.51614 2.06448C8.37375 2.06448 8.25807 1.94856 8.25807 1.80642C8.25807 1.66428 8.37375 1.54836 8.51614 1.54836Z" fill="black"/>
<path d="M14.4517 2.06458H14.9678V2.5807H14.4517V2.06458Z" fill="black"/>
<path d="M14.4517 1.03223H14.9678V1.54836H14.4517V1.03223Z" fill="black"/>
<path d="M13.4194 2.06458H13.9356V2.5807H13.4194V2.06458Z" fill="black"/>
<path d="M13.4194 1.03223H13.9356V1.54836H13.4194V1.03223Z" fill="black"/>
<path d="M12.3872 2.06458H12.9033V2.5807H12.3872V2.06458Z" fill="black"/>
<path d="M12.3872 1.03223H12.9033V1.54836H12.3872V1.03223Z" fill="black"/>
<path d="M11.3547 2.06458H11.8709V2.5807H11.3547V2.06458Z" fill="black"/>
<path d="M11.3547 1.03223H11.8709V1.54836H11.3547V1.03223Z" fill="black"/>
</g>
</svg>
