<svg width="14" height="18" viewBox="0 0 14 18" fill="none" xmlns="http://www.w3.org/2000/svg">
<g opacity="0.7">
<path d="M12.2451 0H0.972318C0.516165 0 0.14502 0.371145 0.14502 0.827299V16.0455C0.14502 16.5016 0.516165 16.8727 0.972318 16.8727H0.990459V17.4545C0.990459 17.7553 1.23515 18 1.53594 18H2.09957C2.40037 18 2.64509 17.7553 2.64509 17.4545V16.8727H10.5722V17.4545C10.5722 17.7553 10.817 18 11.1178 18H11.6814C11.9822 18 12.2269 17.7553 12.2269 17.4545V16.8727H12.245C12.7012 16.8727 13.0723 16.5016 13.0723 16.0455V0.827299C13.0724 0.371145 12.7012 0 12.2451 0ZM0.672364 1.6546H10.8358C10.9814 1.6546 11.0995 1.53654 11.0995 1.39092C11.0995 1.24531 10.9814 1.12725 10.8358 1.12725H0.672364V0.827299C0.672364 0.661923 0.806943 0.527345 0.972318 0.527345H12.2451C12.4105 0.527345 12.545 0.661923 12.545 0.827299V1.12725H11.9631C11.8174 1.12725 11.6994 1.24531 11.6994 1.39092C11.6994 1.53654 11.8174 1.6546 11.9631 1.6546H12.545V4.79089H0.672364V1.6546ZM10.8541 5.33641V5.90004C10.8541 5.91006 10.8459 5.91818 10.8359 5.91818H2.38142C2.3714 5.91818 2.36324 5.91006 2.36324 5.90004V5.33641C2.36324 5.32639 2.3714 5.31827 2.38142 5.31827H10.8359C10.8459 5.31824 10.8541 5.32639 10.8541 5.33641ZM2.11775 17.4546C2.11775 17.4646 2.10959 17.4727 2.09957 17.4727H1.53594C1.52592 17.4727 1.5178 17.4646 1.5178 17.4546V16.8728H2.11775V17.4546ZM11.6996 17.4546C11.6996 17.4646 11.6914 17.4727 11.6814 17.4727H11.1178C11.1078 17.4727 11.0996 17.4646 11.0996 17.4546V16.8728H11.6996V17.4546ZM12.545 14.0909H2.38156C2.23594 14.0909 2.11789 14.2089 2.11789 14.3545C2.11789 14.5002 2.23594 14.6182 2.38156 14.6182H12.545V16.0455C12.545 16.2109 12.4104 16.3454 12.2451 16.3454H0.972318C0.806908 16.3454 0.672364 16.2109 0.672364 16.0455V14.6182H1.25431C1.39992 14.6182 1.51798 14.5002 1.51798 14.3546C1.51798 14.209 1.39992 14.0909 1.25431 14.0909H0.672364V5.31824H1.83685C1.83664 5.32432 1.83593 5.33026 1.83593 5.33638V5.9C1.83593 6.2008 2.08066 6.44549 2.38145 6.44549H10.836C11.1367 6.44549 11.3815 6.2008 11.3815 5.9V5.33638C11.3815 5.33026 11.3808 5.32432 11.3806 5.31824H12.545V14.0909Z" fill="black"/>
<path d="M7.87693 2.25452C7.34305 2.25452 6.90869 2.68884 6.90869 3.22276C6.90869 3.75664 7.34301 4.19096 7.87693 4.19096C8.41082 4.19096 8.84514 3.75664 8.84514 3.22276C8.84514 2.68884 8.41078 2.25452 7.87693 2.25452ZM7.87693 3.66358C7.63383 3.66358 7.43604 3.46583 7.43604 3.22272C7.43604 2.97962 7.63379 2.78183 7.87693 2.78183C8.12004 2.78183 8.31779 2.97958 8.31779 3.22272C8.31779 3.46583 8.12 3.66358 7.87693 3.66358Z" fill="black"/>
<path d="M10.4133 2.25452C9.87942 2.25452 9.44507 2.68884 9.44507 3.22276C9.44507 3.75664 9.87939 4.19096 10.4133 4.19096C10.9472 4.19096 11.3815 3.75664 11.3815 3.22276C11.3815 2.68884 10.9472 2.25452 10.4133 2.25452ZM10.4133 3.66358C10.1702 3.66358 9.97241 3.46583 9.97241 3.22272C9.97241 2.97962 10.1702 2.78183 10.4133 2.78183C10.6564 2.78183 10.8542 2.97958 10.8542 3.22272C10.8542 3.46583 10.6564 3.66358 10.4133 3.66358Z" fill="black"/>
<path d="M2.80418 2.25452C2.27029 2.25452 1.83594 2.68884 1.83594 3.22276C1.83594 3.75664 2.27026 4.19096 2.80418 4.19096C3.3381 4.19096 3.77242 3.75664 3.77242 3.22276C3.77242 2.68884 3.33806 2.25452 2.80418 2.25452ZM2.80418 3.66358C2.56107 3.66358 2.36328 3.46583 2.36328 3.22272C2.36328 2.97962 2.56104 2.78183 2.80418 2.78183C3.04732 2.78183 3.24507 2.97958 3.24507 3.22272C3.24507 3.46583 3.04728 3.66358 2.80418 3.66358Z" fill="black"/>
<path d="M5.34052 2.25452C4.80664 2.25452 4.37231 2.68884 4.37231 3.22276C4.37231 3.75664 4.80664 4.19096 5.34052 4.19096C5.8744 4.19096 6.30876 3.75664 6.30876 3.22276C6.30876 2.68884 5.8744 2.25452 5.34052 2.25452ZM5.34052 3.66358C5.09741 3.66358 4.89966 3.46583 4.89966 3.22272C4.89966 2.97962 5.09741 2.78183 5.34052 2.78183C5.58363 2.78183 5.78142 2.97958 5.78142 3.22272C5.78142 3.46583 5.58363 3.66358 5.34052 3.66358Z" fill="black"/>
<path d="M10.836 7.04541H2.38146C2.08066 7.04541 1.83594 7.2901 1.83594 7.5909V12.9454C1.83594 13.2462 2.08066 13.4909 2.38146 13.4909H10.836V13.4909C11.1368 13.4909 11.3815 13.2462 11.3815 12.9454V7.5909C11.3815 7.2901 11.1368 7.04541 10.836 7.04541ZM10.8542 12.9454C10.8542 12.9554 10.846 12.9636 10.836 12.9636H2.38146C2.37147 12.9636 2.36332 12.9554 2.36332 12.9454V7.5909C2.36332 7.58088 2.37147 7.57275 2.38149 7.57275H10.836C10.846 7.57275 10.8542 7.58088 10.8542 7.5909V12.9454Z" fill="black"/>
<path d="M9.99043 10.9908H3.22681C3.08119 10.9908 2.96313 11.1089 2.96313 11.2545C2.96313 11.4001 3.08119 11.5182 3.22681 11.5182H9.99043C10.136 11.5182 10.2541 11.4001 10.2541 11.2545C10.2541 11.1089 10.136 10.9908 9.99043 10.9908Z" fill="black"/>
<path d="M9.99043 9.01807H3.22681C3.08119 9.01807 2.96313 9.13612 2.96313 9.28174C2.96313 9.42736 3.08119 9.54541 3.22681 9.54541H9.99043C10.136 9.54541 10.2541 9.42736 10.2541 9.28174C10.2541 9.13612 10.136 9.01807 9.99043 9.01807Z" fill="black"/>
</g>
</svg>
