<svg width="15" height="12" viewBox="0 0 15 12" fill="none" xmlns="http://www.w3.org/2000/svg">
<path d="M6 0C5.33726 0 4.8 0.537258 4.8 1.2C4.8 1.86274 5.33726 2.4 6 2.4H13.2C13.8627 2.4 14.4 1.86274 14.4 1.2C14.4 0.537258 13.8627 0 13.2 0H6Z" fill="#001736"/>
<path d="M4.8 6C4.8 5.33726 5.33726 4.8 6 4.8H13.2C13.8627 4.8 14.4 5.33726 14.4 6C14.4 6.66274 13.8627 7.2 13.2 7.2H6C5.33726 7.2 4.8 6.66274 4.8 6Z" fill="#001736"/>
<path d="M4.8 10.8C4.8 10.1373 5.33726 9.6 6 9.6H13.2C13.8627 9.6 14.4 10.1373 14.4 10.8C14.4 11.4627 13.8627 12 13.2 12H6C5.33726 12 4.8 11.4627 4.8 10.8Z" fill="#001736"/>
<path d="M0 10.8C0 10.1373 0.537258 9.6 1.2 9.6C1.86274 9.6 2.4 10.1373 2.4 10.8C2.4 11.4627 1.86274 12 1.2 12C0.537258 12 0 11.4627 0 10.8Z" fill="#001736"/>
<path d="M0 1.2C0 1.86274 0.537258 2.4 1.2 2.4C1.86274 2.4 2.4 1.86274 2.4 1.2C2.4 0.537258 1.86274 0 1.2 0C0.537258 0 0 0.537258 0 1.2Z" fill="#001736"/>
<path d="M2.4 6C2.4 6.66274 1.86274 7.2 1.2 7.2C0.537258 7.2 0 6.66274 0 6C0 5.33726 0.537258 4.8 1.2 4.8C1.86274 4.8 2.4 5.33726 2.4 6Z" fill="#001736"/>
</svg>
