<svg width="13" height="20" viewBox="0 0 13 20" fill="none" xmlns="http://www.w3.org/2000/svg">
<path d="M7.74344 14.577L11.1 9.17983C11.111 9.16237 11.1202 9.14401 11.1273 9.12498C11.7069 8.17978 12.013 7.10002 12.013 5.99765C12.013 2.69055 9.32244 0 6.01533 0C2.70823 0 0.0174626 2.69055 0.0174626 5.99765C0.0174626 7.10024 0.323949 8.18045 0.904013 9.12633C0.910729 9.14289 0.918565 9.15901 0.927968 9.17468L4.1641 14.5905C1.65198 14.9455 0 15.9785 0 17.2315C0 18.7841 2.63838 20 6.00638 20C9.37438 20 12.0128 18.7839 12.0128 17.2315C12.013 15.9727 10.284 14.9167 7.74344 14.577ZM1.50691 8.82387C0.971848 7.97224 0.689092 6.99502 0.689092 5.99765C0.689092 3.06084 3.0783 0.671629 6.01533 0.671629C8.95214 0.671629 11.3414 3.06084 11.3414 5.99765C11.3414 6.99547 11.0586 7.97269 10.5238 8.82387C10.5126 8.84178 10.5034 8.86036 10.496 8.87961L6.94979 14.5811C6.89651 14.6628 6.88599 14.6814 6.82084 14.7884L5.92534 16.2284L1.53691 8.88432C1.52908 8.86349 1.519 8.84312 1.50691 8.82387ZM6.0066 19.3284C2.86271 19.3284 0.671853 18.2231 0.671853 17.2315C0.671853 16.3316 2.32182 15.4835 4.54111 15.2209L5.63139 17.0457C5.69161 17.1462 5.79952 17.2083 5.9166 17.2092C5.9175 17.2092 5.91862 17.2092 5.91952 17.2092C6.03548 17.2092 6.14339 17.1492 6.20473 17.0507L7.35098 15.2077C9.60564 15.452 11.3411 16.3215 11.3411 17.2315C11.3414 18.2233 9.1505 19.3284 6.0066 19.3284Z" fill="white"/>
</svg>
