<svg width="13" height="14" viewBox="0 0 13 14" fill="none" xmlns="http://www.w3.org/2000/svg">
<path d="M0.131065 4.19306L0.332157 0.698844C0.354368 0.31291 0.685264 0.0180067 1.07122 0.0402185L4.56544 0.241311C4.95139 0.263522 5.24627 0.594439 5.22406 0.980373L5.06319 3.77575C5.04098 4.16168 4.71008 4.45658 4.32413 4.43437L2.92644 4.35394C2.74875 7.44158 5.10776 10.0887 8.19544 10.2664L8.27588 8.86875C8.29809 8.48281 8.62898 8.18791 9.01494 8.21012L11.8103 8.37099C12.1963 8.3932 12.4911 8.72412 12.4689 9.11006L12.2678 12.6043C12.2456 12.9902 11.9147 13.2851 11.5288 13.2629L8.03457 13.0618C3.40304 12.7953 -0.135481 8.82461 0.131065 4.19306Z" fill="#FFC220"/>
</svg>
