<svg width="24" height="24" viewBox="0 0 24 24" fill="none" xmlns="http://www.w3.org/2000/svg">
<circle cx="12" cy="12" r="11.5" stroke="white"/>
<path d="M12.0297 11.5746C9.25636 11.5746 7 13.9154 7 16.7925C7 16.907 7.09278 16.9999 7.20741 16.9999H16.8521C16.9666 16.9999 17.0595 16.907 17.0595 16.7925C17.0595 13.9153 14.8032 11.5746 12.0297 11.5746ZM7.41911 16.5851C7.52378 14.0326 9.55186 11.9894 12.0297 11.9894C14.5076 11.9894 16.5357 14.0326 16.6405 16.5851H7.41911Z" fill="white"/>
<path d="M11.9429 11.0047C13.5424 11.0047 14.8437 9.65792 14.8437 8.00236C14.8437 6.3468 13.5426 5 11.9429 5C10.3432 5 9.04187 6.34693 9.04187 8.00236C9.04187 9.65778 10.3432 11.0047 11.9429 11.0047ZM11.9429 5.41482C13.3137 5.41482 14.4289 6.57564 14.4289 8.00236C14.4289 9.42907 13.3137 10.5899 11.9429 10.5899C10.5719 10.5899 9.45669 9.42907 9.45669 8.00236C9.45669 6.57564 10.572 5.41482 11.9429 5.41482Z" fill="white"/>
</svg>
