<svg width="54" height="48" viewBox="0 0 54 48" fill="none" xmlns="http://www.w3.org/2000/svg">
<g opacity="0.7">
<path d="M31.77 46.952V36.5314C38.4572 35.9229 41.7999 31.0816 41.7999 22.0076H33.9563C31.6411 22.0076 29.7642 20.1307 29.7642 17.8154V5.24017C29.7642 2.92496 31.6411 1.04803 33.9563 1.04803H48.4192C50.7344 1.04803 52.6113 2.92496 52.6113 5.24017V21.2911C52.6113 37.6162 45.6648 46.1704 31.77 46.952Z" fill="white"/>
<path d="M3.05369 46.952V36.5314C9.74088 35.9229 13.0836 31.0816 13.0836 22.0076H5.23999C2.92478 22.0076 1.04785 20.1307 1.04785 17.8154V5.24017C1.04785 2.92496 2.92478 1.04803 5.23999 1.04803H19.7029C22.0181 1.04803 23.895 2.92496 23.895 5.24017V21.2911C23.895 37.6162 16.9485 46.1704 3.05369 46.952Z" fill="white"/>
<path d="M3.05376 48C2.78672 48 2.52901 47.8979 2.33387 47.7136C2.12447 47.5156 2.00583 47.2402 2.00583 46.952V36.5312C2.00583 35.9892 2.41907 35.5367 2.95892 35.4875C8.81093 34.9551 11.7816 30.885 12.0201 23.0555H5.24017C2.35074 23.0555 0 20.7048 0 17.8153V5.24017C0 2.35074 2.35074 0 5.24017 0H19.7031C22.5925 0 24.9432 2.35074 24.9432 5.24017V8.59389C24.9432 9.17261 24.474 9.64192 23.8952 9.64192C23.3164 9.64192 22.8472 9.17261 22.8472 8.59389V5.24017C22.8472 3.50652 21.4367 2.09607 19.7031 2.09607H5.24017C3.50652 2.09607 2.09607 3.50652 2.09607 5.24017V17.8153C2.09607 19.549 3.50652 20.9594 5.24017 20.9594H13.0838C13.6626 20.9594 14.1318 21.4288 14.1318 22.0075C14.1318 26.7402 13.2258 30.4518 11.439 33.0395C9.75448 35.4788 7.28919 36.9624 4.10201 37.4581V45.8252C16.7125 44.6969 22.8472 36.6598 22.8472 21.291V17.5371C22.8472 16.9584 23.3164 16.489 23.8952 16.489C24.474 16.489 24.9432 16.9584 24.9432 17.5371V21.291C24.9432 29.6624 23.1114 36.1626 19.4986 40.611C15.8474 45.1067 10.3345 47.5921 3.11266 47.9983C3.09307 47.9995 3.07336 48 3.05376 48Z" fill="#F1EFF0"/>
<path d="M48.4191 0H33.9562C31.0668 0 28.7161 2.35074 28.7161 5.24017V17.8153C28.7161 20.7048 31.0668 23.0555 33.9562 23.0555H40.7362C40.4977 30.885 37.527 34.9551 31.675 35.4875C31.1352 35.5367 30.7219 35.9892 30.7219 36.5312V46.952C30.7219 47.2402 30.8405 47.5156 31.0499 47.7136C31.2451 47.898 31.5028 48 31.7698 48C31.7894 48 31.8091 47.9995 31.8287 47.9983C39.0505 47.5921 44.5635 45.1067 48.2146 40.611C51.8274 36.1627 53.6593 29.6624 53.6593 21.291V5.24017C53.6593 2.35074 51.3086 0 48.4191 0ZM51.5632 21.291C51.5632 36.6598 45.4286 44.6969 32.818 45.8252V37.4581C36.0053 36.9624 38.4705 35.4788 40.1549 33.0395C41.9417 30.4519 42.8478 26.7403 42.8478 22.0075C42.8478 21.4288 42.3786 20.9594 41.7997 20.9594H33.9562C32.2226 20.9594 30.8121 19.549 30.8121 17.8153V5.24017C30.8121 3.50652 32.2226 2.09607 33.9562 2.09607H46.5327V9.85509C46.5327 10.4338 47.0019 10.9031 47.5807 10.9031C48.1595 10.9031 48.6287 10.4338 48.6287 9.85509V2.10383C50.2649 2.21219 51.5632 3.57705 51.5632 5.24017V21.291Z" fill="#F1EFF0"/>
<path d="M47.5807 14.5467C47.0019 14.5467 46.5327 14.0774 46.5327 13.4987C46.5327 12.9199 47.0019 12.4455 47.5807 12.4455C48.1596 12.4455 48.6288 12.9096 48.6288 13.4883V13.4987C48.6288 14.0774 48.1595 14.5467 47.5807 14.5467Z" fill="#F1EFF0"/>
<path d="M23.8952 14.1354C23.3164 14.1354 22.8472 13.6661 22.8472 13.0873V13.0654C22.8472 12.4867 23.3164 12.0174 23.8952 12.0174C24.474 12.0174 24.9432 12.4867 24.9432 13.0654V13.0873C24.9432 13.6661 24.474 14.1354 23.8952 14.1354Z" fill="#F1EFF0"/>
</g>
</svg>
