<svg width="16" height="16" viewBox="0 0 16 16" fill="none" xmlns="http://www.w3.org/2000/svg">
<path d="M15.8171 14.1838L12.7949 11.1636C12.7406 11.1093 12.6669 11.0788 12.59 11.0788C12.59 11.0788 12.59 11.0788 12.5898 11.0788C12.5131 11.0788 12.4393 11.1093 12.3848 11.1636L11.889 11.6599L10.9969 10.768C12.0852 9.62349 12.7551 8.07795 12.7551 6.37767C12.7551 2.86103 9.89411 9.78111e-09 6.37747 9.78111e-09C2.86102 -0.000193159 0 2.86084 0 6.37748C0 9.89431 2.86102 12.7551 6.37766 12.7551C7.98599 12.7551 9.45619 12.1554 10.5793 11.1696L11.4796 12.0698L11.0643 12.4853C10.9513 12.5985 10.9513 12.782 11.0645 12.895L14.0865 15.9152C14.1407 15.9695 14.2145 16 14.2914 16C14.3683 16 14.4419 15.9695 14.4964 15.9152L15.8173 14.5935C15.8715 14.5393 15.9021 14.4655 15.9021 14.3886C15.9019 14.3117 15.8713 14.2381 15.8171 14.1838ZM0.579499 6.37748C0.579499 3.18034 3.18052 0.579318 6.37766 0.579318C9.5748 0.579318 12.1758 3.18034 12.1758 6.37748C12.1758 9.57462 9.5748 12.1756 6.37766 12.1756C3.18052 12.1756 0.579499 9.57462 0.579499 6.37748ZM14.291 15.3005L11.6792 12.6899L12.5904 11.7781L15.2024 14.3888L14.291 15.3005Z" fill="white"/>
</svg>
