<svg width="20" height="20" viewBox="0 0 20 20" fill="none" xmlns="http://www.w3.org/2000/svg">
<path d="M6.26395 12.1844L7.35346 15.892C7.06072 16.2367 6.87697 16.6766 6.87697 17.1629C6.87697 18.2524 7.76463 19.1385 8.8557 19.1385C9.82323 19.1385 10.6259 18.4346 10.7912 17.5115H14.6121C14.7246 18.4944 15.5521 19.2632 16.5649 19.2632C17.6551 19.2632 18.542 18.3771 18.542 17.288C18.542 16.1974 17.6551 15.3097 16.5649 15.3097C15.824 15.3097 15.185 15.7252 14.847 16.3311H10.6369C10.3225 15.6575 9.64499 15.1869 8.8557 15.1869C8.69596 15.1869 8.5429 15.2109 8.39417 15.2467L7.75912 13.0858H17.6241V13.0862C17.9085 13.0862 18.1521 12.8836 18.2044 12.6042L19.99 3.04266C20.0222 2.87032 19.9758 2.69208 19.8641 2.55752C19.7519 2.42217 19.5855 2.34426 19.41 2.34426H4.21597L3.56676 0.402908C3.4861 0.162502 3.26103 0 3.00725 0H0.590197C0.264015 0 0 0.264015 0 0.590197C0 0.916379 0.264015 1.18039 0.590197 1.18039H2.58231L6.26395 12.1844ZM18.6994 3.52465L17.1338 11.9058H7.41523L7.39044 11.8319L7.34008 11.6611C7.33024 11.6273 7.31647 11.5958 7.30113 11.5655L4.61062 3.52465H18.6994ZM16.5649 16.4909C17.0044 16.4909 17.3616 16.8489 17.3616 17.2888C17.3616 17.7268 17.0044 18.0836 16.5649 18.0836C16.1265 18.0836 15.7697 17.7271 15.7697 17.2888C15.7697 16.8489 16.1261 16.4909 16.5649 16.4909ZM9.64578 17.1633C9.64578 17.6016 9.29127 17.9585 8.85531 17.9585C8.41502 17.9585 8.05697 17.6016 8.05697 17.1633C8.05697 16.725 8.41502 16.3681 8.85531 16.3681C9.29087 16.3677 9.64578 16.7246 9.64578 17.1633Z" fill="white"/>
<path d="M13.1247 8.77781H15.48C15.8062 8.77781 16.0702 8.51379 16.0702 8.18761C16.0702 7.86143 15.8062 7.59741 15.48 7.59741H13.1247C12.7986 7.59741 12.5345 7.86143 12.5345 8.18761C12.5345 8.51379 12.7986 8.77781 13.1247 8.77781Z" fill="white"/>
<path d="M8.28124 8.77781H10.6365C10.9627 8.77781 11.2267 8.51379 11.2267 8.18761C11.2267 7.86143 10.9627 7.59741 10.6365 7.59741H8.28124C7.95506 7.59741 7.69104 7.86143 7.69104 8.18761C7.69104 8.51379 7.95506 8.77781 8.28124 8.77781Z" fill="white"/>
</svg>
