<svg width="18" height="18" viewBox="0 0 18 18" fill="none" xmlns="http://www.w3.org/2000/svg">
<path d="M17.9698 10.9759L17.9725 10.975L15.0173 4.52683L15.7339 4.17014L15.4658 3.63314L14.7671 3.98114L14.6726 3.77504C14.6035 3.62444 14.4254 3.55833 14.2748 3.62737C14.2095 3.65733 14.1571 3.70972 14.1272 3.77504L14.0429 3.95924C13.5344 3.72307 12.9805 3.60052 12.4199 3.60014H9.89991V3.00015H10.4999V2.40015H9.98421L10.1999 1.53706C10.3655 0.874331 9.96253 0.202825 9.2998 0.0371887C8.63707 -0.12841 7.96556 0.274561 7.79993 0.937292C7.75073 1.13417 7.75073 1.34015 7.79993 1.53702L8.01562 2.40012H7.49993V3.00011H8.09993V3.6001H5.58145C5.02023 3.60055 4.46584 3.7234 3.95697 3.9601L3.87267 3.7759C3.80363 3.6253 3.62554 3.55919 3.47495 3.62823C3.40962 3.65819 3.35723 3.71058 3.32727 3.7759L3.23277 3.982L2.53408 3.6325L2.26588 4.1701L2.98257 4.52829L0.0273037 10.975C0.0090789 11.0142 -0.000221011 11.0569 3.98717e-06 11.1001C0.00131647 12.2593 0.940757 13.1987 2.09998 13.2H5.09995C6.25918 13.1987 7.19862 12.2593 7.19993 11.1001C7.19918 11.057 7.18895 11.0146 7.16993 10.9759L4.20656 4.50343C4.63732 4.30348 5.10655 4.19999 5.58145 4.20014H8.09993V15.1758L7.07573 16.2H5.99995C5.17195 16.201 4.50094 16.872 4.49996 17.7C4.49996 17.8657 4.63428 18 4.79996 18H13.1999C13.3655 18 13.4999 17.8657 13.4999 17.7C13.4989 16.872 12.8279 16.201 11.9999 16.2H10.9241L9.89991 15.1758V4.20014H12.4199C12.8948 4.19999 13.364 4.30348 13.7948 4.50343L10.8272 10.975C10.809 11.0142 10.7997 11.0569 10.7999 11.1001C10.8012 12.2593 11.7407 13.1987 12.8999 13.2H15.8998C17.0591 13.1987 17.9985 12.2593 17.9998 11.1001C17.9991 11.057 17.9889 11.0146 17.9698 10.9759ZM5.09995 12.6001H2.09998C1.38742 12.5993 0.773434 12.098 0.629998 11.4001H6.56994C6.42654 12.098 5.81252 12.5993 5.09995 12.6001ZM6.43254 10.8001H0.767396L3.52317 4.78783C3.57349 4.80133 3.62644 4.80133 3.67677 4.78783L6.43254 10.8001ZM8.49802 0.844968C8.73164 0.567771 9.14575 0.532484 9.42295 0.766107C9.45141 0.790106 9.47781 0.816506 9.50181 0.844968C9.62316 0.999317 9.66602 1.20121 9.61791 1.39156L9.36561 2.40015H8.63422L8.38192 1.39156C8.33381 1.20121 8.37671 0.999317 8.49802 0.844968ZM8.69992 3.60014V3.00015H9.29991V3.60014H8.69992ZM9.29991 4.20014V15H8.69992V4.20014H9.29991ZM11.9999 16.8C12.3812 16.8005 12.721 17.0407 12.8486 17.4H5.15125C5.27886 17.0407 5.61865 16.8005 5.99995 16.8H11.9999ZM10.0757 16.2H7.92413L8.52412 15.6H9.47571L10.0757 16.2ZM14.3225 4.78873C14.372 4.80617 14.4263 4.80392 14.4743 4.78243L17.2324 10.8001H11.5673L14.3225 4.78873ZM15.8998 12.6001H12.8999C12.1873 12.5993 11.5733 12.098 11.4299 11.4001H17.3698C17.2264 12.098 16.6124 12.5993 15.8998 12.6001Z" fill="white"/>
</svg>
