<svg width="12" height="18" viewBox="0 0 12 18" fill="none" xmlns="http://www.w3.org/2000/svg">
<g opacity="0.7">
<path d="M9.9 0H1.5C0.672 0.000975 0.000975 0.672 0 1.5V16.5C0.000975 17.328 0.672 17.999 1.5 18H9.9C10.728 17.999 11.399 17.328 11.4 16.5V1.5C11.399 0.672 10.728 0.000975 9.9 0ZM10.8 16.5C10.8 16.9971 10.3971 17.4 9.9 17.4H1.5C1.00294 17.4 0.6 16.9971 0.6 16.5V16.2H10.8V16.5ZM10.8 15.6H0.6V2.4H10.8V15.6ZM10.8 1.8H0.6V1.5C0.6 1.00294 1.00294 0.6 1.5 0.6H9.9C10.3971 0.6 10.8 1.00294 10.8 1.5V1.8Z" fill="#FFC220"/>
<path d="M5.09995 0.900024H4.49995C4.33428 0.900024 4.19995 1.03435 4.19995 1.20002C4.19995 1.3657 4.33428 1.50002 4.49995 1.50002H5.09995C5.26563 1.50002 5.39995 1.3657 5.39995 1.20002C5.39995 1.03435 5.26563 0.900024 5.09995 0.900024Z" fill="#FFC220"/>
<path d="M7.19995 0.900024H5.99995C5.83428 0.900024 5.69995 1.03435 5.69995 1.20002C5.69995 1.3657 5.83428 1.50002 5.99995 1.50002H7.19995C7.36563 1.50002 7.49995 1.3657 7.49995 1.20002C7.49995 1.03435 7.36563 0.900024 7.19995 0.900024Z" fill="#FFC220"/>
<path d="M6.6 16.5H4.8C4.63432 16.5 4.5 16.6343 4.5 16.8C4.5 16.9657 4.63432 17.1 4.8 17.1H6.6C6.76568 17.1 6.9 16.9657 6.9 16.8C6.9 16.6343 6.76568 16.5 6.6 16.5Z" fill="#FFC220"/>
</g>
</svg>
