<svg width="20" height="16" viewBox="0 0 20 16" fill="none" xmlns="http://www.w3.org/2000/svg">
<path d="M18 0H1.2C0.538387 0 0 0.538387 0 1.2V12.4C0 13.0616 0.538387 13.6 1.2 13.6H7.99998V14.4616L3.53437 15.2056C3.31676 15.2416 3.16957 15.448 3.20557 15.6656C3.23839 15.8616 3.40796 16 3.59996 16C3.62156 16 3.64316 15.9984 3.66555 15.9944L8.43198 15.2H10.7672L15.5336 15.9944C15.556 15.9984 15.5784 16 15.6 16C15.7928 16 15.9624 15.8615 15.9936 15.6656C16.0304 15.448 15.8824 15.2416 15.6648 15.2056L11.2 14.4616V13.6H18C18.6616 13.6 19.2 13.0616 19.2 12.4V1.2C19.2 0.538387 18.6616 0 18 0ZM10.4 14.4H8.79997V13.6H10.4V14.4ZM18.4 12.4C18.4 12.6208 18.2208 12.8 18 12.8H1.2C0.979199 12.8 0.799987 12.6208 0.799987 12.4V1.2C0.799987 0.979199 0.979199 0.799987 1.2 0.799987H18C18.2208 0.799987 18.4 0.979199 18.4 1.2V12.4Z" fill="black"/>
<path d="M8.80001 4.80005H6.40001C6.17921 4.80005 6 4.97926 6 5.20006C6 5.42086 6.17921 5.60004 6.40001 5.60004H7.2V8.40005C7.2 8.62085 7.37921 8.80006 7.60001 8.80006C7.82081 8.80006 8.00002 8.62085 8.00002 8.40005V5.60004H8.80001C9.02081 5.60004 9.20002 5.42082 9.20002 5.20002C9.20002 4.97922 9.02081 4.80005 8.80001 4.80005Z" fill="black"/>
<path d="M12.5409 4.82561C12.3329 4.74803 12.1033 4.85201 12.0257 5.0592L11.2001 7.26079L10.3745 5.0592C10.2969 4.8528 10.0665 4.74881 9.8593 4.82561C9.6529 4.9032 9.54808 5.1336 9.62571 5.34083L10.8257 8.54081C10.8841 8.69681 11.0337 8.80001 11.2001 8.80001C11.3665 8.80001 11.5161 8.69681 11.5745 8.54081L12.7745 5.34083C12.8521 5.13364 12.7473 4.90324 12.5409 4.82561Z" fill="black"/>
</svg>
