<svg width="100" height="100" viewBox="0 0 100 100" fill="none" xmlns="http://www.w3.org/2000/svg">
<path d="M49.8047 39.4531C51.9623 39.4531 53.7109 41.2018 53.7109 43.3594C53.7109 45.517 51.9623 47.2656 49.8047 47.2656C47.6471 47.2656 45.8984 45.517 45.8984 43.3594C45.8984 41.2018 47.6471 39.4531 49.8047 39.4531ZM63.4766 43.3594C63.4766 45.517 65.2252 47.2656 67.3828 47.2656C69.5404 47.2656 71.2891 45.517 71.2891 43.3594C71.2891 41.2018 69.5404 39.4531 67.3828 39.4531C65.2252 39.4531 63.4766 41.2018 63.4766 43.3594ZM28.3203 43.3594C28.3203 45.517 30.069 47.2656 32.2266 47.2656C34.3842 47.2656 36.1328 45.517 36.1328 43.3594C36.1328 41.2018 34.3842 39.4531 32.2266 39.4531C30.069 39.4531 28.3203 41.2018 28.3203 43.3594ZM96.5652 79.9927C101.137 84.5642 101.137 91.9983 96.5675 96.5675C94.2833 98.8518 91.2819 99.9947 88.2812 99.9947C85.2806 99.9947 82.2792 98.8518 79.995 96.5675L58.5518 75.1724C58.0963 74.7177 57.7606 74.1585 57.5737 73.542L52.903 58.1665C52.4887 56.8031 52.8496 55.323 53.8445 54.303C54.8393 53.2837 56.3103 52.887 57.6836 53.2669L73.4497 57.634C74.099 57.814 74.6902 58.1581 75.1671 58.6342L96.5652 79.9927ZM64.7636 70.3339L79.2343 84.7725L84.7595 79.2473L70.3743 64.8895L62.4428 62.6923L64.7636 70.3339ZM91.0431 85.5194L90.2893 84.7664L84.7649 90.2908L85.5164 91.04C87.0422 92.5667 89.5203 92.5667 91.0431 91.0431C92.5667 89.5203 92.5667 87.0422 91.0431 85.5194ZM52.1729 80.9479C51.4511 80.9792 50.7202 80.9952 50 80.9952C43.7187 80.9952 37.6717 79.8256 32.0274 77.5192C31.0661 77.1271 29.9873 77.1332 29.0306 77.5368L11.2442 85.0449L17.2371 70.8488C17.823 69.4611 17.5583 67.8589 16.5558 66.7328C10.836 60.3073 7.8125 52.6192 7.8125 44.5015C7.8125 24.2714 26.738 7.8125 50 7.8125C73.262 7.8125 92.1875 24.2714 92.1875 44.5015C92.1875 49.2989 91.0095 54.1153 88.6856 58.8158C87.7296 60.7498 88.5223 63.0928 90.4564 64.0488C92.3904 65.0047 94.7334 64.212 95.6894 62.278C98.5497 56.4911 100 50.5104 100 44.5015C100 19.9631 77.5703 0 50 0C22.4304 0 0 19.9631 0 44.5015C0 53.7636 3.14026 62.5351 9.10873 70.0157L0.307465 90.8638C-0.310516 92.3279 0.0205995 94.0208 1.14441 95.1447C1.89209 95.8923 2.89078 96.2891 3.90701 96.2891C4.41895 96.2891 4.93546 96.1884 5.42526 95.9816L30.6068 85.3516C36.7485 87.6457 43.2648 88.8077 50 88.8077C50.8331 88.8077 51.6792 88.7886 52.5146 88.7527C54.67 88.6581 56.3408 86.8347 56.2462 84.6794C56.1523 82.5241 54.3251 80.8479 52.1729 80.9479Z" fill="#F1EFF0"/>
</svg>
